
<!-- Uploaded to: SVG Repo, www.svgrepo.com, Transformed by: SVG Repo Mixer Tools -->
<svg version="1.1" id="Layer_1" xmlns="http://www.w3.org/2000/svg"
    xmlns:xlink="http://www.w3.org/1999/xlink" viewBox="0 0 480 480" xml:space="preserve"
    width="800px" height="800px" fill="#000000">

<g id="SVGRepo_bgCarrier" stroke-width="0"/>

<g id="SVGRepo_tracerCarrier" stroke-linecap="round" stroke-linejoin="round"/>

<g id="SVGRepo_iconCarrier"> <path style="fill:#1D8AA3;" d="M192,152H16c-8.84,0-16,7.16-16,16v296c0,8.84,7.16,16,16,16h176c8.84,0,16-7.16,16-16V168 C208,159.16,200.84,152,192,152z"/> <rect x="16" y="136" style="fill:#16687A;" width="176" height="16"/> <g> <path style="fill:#D2E8ED;" d="M177.576,30.424C157.96,10.808,131.824,0,104,0C46.656,0,0,46.656,0,104v24c0,4.424,3.584,8,8,8h192 c4.416,0,8-3.576,8-8v-24C208,76.168,197.192,50.04,177.576,30.424z"/> <path style="fill:#D2E8ED;" d="M112,384H64c-4.416,0-8-3.576-8-8s3.584-8,8-8h48c13.232,0,24-10.768,24-24s-10.768-24-24-24H92 c-19.848,0-36-16.152-36-36s16.152-36,36-36h52c4.416,0,8,3.576,8,8s-3.584,8-8,8H92c-11.024,0-20,8.968-20,20s8.976,20,20,20h20 c22.056,0,40,17.944,40,40S134.056,384,112,384z"/> <path style="fill:#D2E8ED;" d="M104,216H8c-4.416,0-8-3.576-8-8s3.584-8,8-8h96c4.416,0,8,3.576,8,8S108.416,216,104,216z"/> <path style="fill:#D2E8ED;" d="M152,216h-16c-4.416,0-8-3.576-8-8s3.584-8,8-8h16c4.416,0,8,3.576,8,8S156.416,216,152,216z"/> <path style="fill:#D2E8ED;" d="M200,432h-96c-4.416,0-8-3.576-8-8s3.584-8,8-8h96c4.416,0,8,3.576,8,8S204.416,432,200,432z"/> <path style="fill:#D2E8ED;" d="M72,432H56c-4.416,0-8-3.576-8-8s3.584-8,8-8h16c4.416,0,8,3.576,8,8S76.416,432,72,432z"/> </g> <g> <circle style="fill:#16687A;" cx="72" cy="64" r="8"/> <circle style="fill:#16687A;" cx="104" cy="88" r="8"/> <circle style="fill:#16687A;" cx="104" cy="40" r="8"/> <circle style="fill:#16687A;" cx="136" cy="64" r="8"/> </g> <path style="fill:#FCB23C;" d="M464,152H288c-8.84,0-16,7.16-16,16v296c0,8.84,7.16,16,16,16h176c8.84,0,16-7.16,16-16V168 C480,159.16,472.84,152,464,152z"/> <rect x="288" y="136" style="fill:#BD852D;" width="176" height="16"/> <g> <path style="fill:#FEF0D8;" d="M449.576,30.424C429.96,10.808,403.824,0,376,0c-57.344,0-104,46.656-104,104v24 c0,4.424,3.584,8,8,8h192c4.416,0,8-3.576,8-8v-24C480,76.168,469.192,50.04,449.576,30.424z"/> <path style="fill:#FEF0D8;" d="M376,216h-96c-4.416,0-8-3.576-8-8s3.584-8,8-8h96c4.416,0,8,3.576,8,8S380.416,216,376,216z"/> </g> <g> <circle style="fill:#BD852D;" cx="344" cy="64" r="8"/> <circle style="fill:#BD852D;" cx="376" cy="88" r="8"/> <circle style="fill:#BD852D;" cx="376" cy="40" r="8"/> <circle style="fill:#BD852D;" cx="408" cy="64" r="8"/> </g> <g> <path style="fill:#FEF0D8;" d="M408,216h16c4.416,0,8-3.576,8-8s-3.584-8-8-8h-16c-4.416,0-8,3.576-8,8S403.584,216,408,216z"/> <path style="fill:#FEF0D8;" d="M472,416h-96c-4.416,0-8,3.576-8,8s3.584,8,8,8h96c4.416,0,8-3.576,8-8S476.416,416,472,416z"/> <path style="fill:#FEF0D8;" d="M344,416h-16c-4.416,0-8,3.576-8,8s3.584,8,8,8h16c4.416,0,8-3.576,8-8S348.416,416,344,416z"/> <path style="fill:#FEF0D8;" d="M392,320c22.056,0,40-17.944,40-40s-17.944-40-40-40h-32c-13.232,0-24,10.768-24,24v48v72 c0,4.424,3.584,8,8,8s8-3.576,8-8v-64H392z M352,264c0-4.416,3.592-8,8-8h32c13.232,0,24,10.768,24,24s-10.768,24-24,24h-40V264z"/> </g> </g>

</svg>