<svg
              xmlns="http://www.w3.org/2000/svg"
              width="9"
              height="15"
              viewBox="0 0 9 15"
              fill="none"
            >
              <g clip-path="url(#clip0_32_122)">
                <path
                  d="M7.81315 15C8.22666 14.815 8.5796 14.5212 8.83259 14.1512C8.94426 14.0146 9.00512 13.8448 9.00512 13.6698C9.00512 13.4947 8.94426 13.3249 8.83259 13.1883C8.78059 13.1255 8.72468 13.066 8.66513 13.01C6.83988 11.2126 5.01219 9.42225 3.18209 7.63908L3.03641 7.51784L3.17481 7.37518L8.70148 1.96146C8.86161 1.84331 8.96968 1.66974 9.00352 1.47618C9.03735 1.28263 8.9944 1.08372 8.88352 0.92012C8.64979 0.623424 8.37817 0.357351 8.07528 0.128405C7.93464 0.0302563 7.76299 -0.0157423 7.59094 -0.00137138C7.41888 0.0130005 7.25757 0.0867968 7.13593 0.206854L7.0122 0.313818L0.334982 6.85451C0.181932 6.98056 0.0785227 7.15493 0.0426354 7.34762C0.0067482 7.54031 0.0406162 7.73925 0.138366 7.91013C0.191482 7.99366 0.255092 8.07035 0.327693 8.13838C2.5607 10.3305 4.79377 12.5178 7.02678 14.7004C7.17571 14.8167 7.33674 14.9171 7.50729 15H7.81315Z"
                  fill="#E4801E"
                />
              </g>
              <defs>
                <clipPath id="clip0_32_122">
                  <rect
                    width="9"
                    height="15"
                    fill="white"
                    transform="matrix(1 0 0 -1 0 15)"
                  />
                </clipPath>
              </defs>
            </svg>