
<!-- Uploaded to: SVG Repo, www.svgrepo.com, Transformed by: SVG Repo Mixer Tools -->
<svg fill="#000000" height="20px" width="20px" version="1.1" id="Layer_1"
    xmlns="http://www.w3.org/2000/svg" xmlns:xlink="http://www.w3.org/1999/xlink"
    viewBox="0 0 496 496" xml:space="preserve">

<g id="SVGRepo_bgCarrier" stroke-width="0"/>

<g id="SVGRepo_tracerCarrier" stroke-linecap="round" stroke-linejoin="round"/>

<g id="SVGRepo_iconCarrier"> <g> <g> <path d="M248,0C111.168,0,0.256,111.04,0.256,248S111.184,496,248,496c136.832,0,247.744-111.04,247.744-248S384.816,0,248,0z M248,480C120.208,480,16.256,375.92,16.256,248S120.208,16,248,16s231.744,104.08,231.744,232S375.792,480,248,480z"/> </g> </g> <g> <g> <polygon points="336.192,171.2 324.88,159.888 248.176,236.688 171.472,159.888 160.16,171.2 236.88,248 160.16,324.8 171.472,336.112 248.176,259.312 324.88,336.112 336.192,324.8 259.488,248 "/> </g> </g> </g>

</svg>