<svg width="64px" height="64px" viewBox="0 0 128 128" id="Layer_1" version="1.1"
    xml:space="preserve" xmlns="http://www.w3.org/2000/svg"
    xmlns:xlink="http://www.w3.org/1999/xlink" fill="#000000">

<g id="SVGRepo_bgCarrier" stroke-width="0"/>

<g id="SVGRepo_tracerCarrier" stroke-linecap="round" stroke-linejoin="round"/>

<g id="SVGRepo_iconCarrier"> <style type="text/css"> .st0{fill:#581166;} .st1{fill:#E83A3A;} .st2{fill:#FF5855;} .st3{opacity:0.5;} .st4{fill:#FFDA8E;} .st5{fill:#FFFFFF;} .st6{fill:#EABA65;} .st7{fill:#E6E6E6;} .st8{fill:#460A54;} .st9{fill:none;} .st10{fill:none;stroke:#581166;stroke-width:2;stroke-linecap:round;stroke-linejoin:round;stroke-miterlimit:10;} .st11{fill:#F2F2F2;} </style> <g> <g> <g> <g> <path class="st5" d="M104.6,51.8v35.8c0,4.1-3.2,7.5-7,7.5H29.8c-3.9,0-7-3.4-7-7.5V51.8H104.6z"/> </g> </g> </g> <g> <g> <g> <path class="st7" d="M91.3,100.5V86.8h12.9C104.2,86.8,103.2,97.8,91.3,100.5z"/> </g> </g> </g> <g> <g> <g> <path class="st5" d="M104.6,87.5L104.6,87.5c0,4.1-9.5,13-13.3,13H29.8c-3.9,0-7-3.4-7-7.5v-5.5c0,4.1,3.2,7.5,7,7.5h67.8 C101.5,95,104.6,91.6,104.6,87.5z"/> </g> </g> </g> <g class="st3"> <g> <g> <path class="st0" d="M104.6,87.5L104.6,87.5c0,4.1-9.5,13-13.3,13H29.8c-3.9,0-7-3.4-7-7.5v-5.5c0,4.1,3.2,7.5,7,7.5h67.8 C101.5,95,104.6,91.6,104.6,87.5z"/> </g> </g> </g> <g> <g> <g> <path class="st2" d="M104.6,41.5v10.3H22.8V41.5c0-4.1,3.2-7.5,7-7.5h67.8C101.5,34,104.6,37.4,104.6,41.5z"/> </g> </g> </g> <g> <g> <g> <path class="st0" d="M91.3,102.4h-61c-5.2,0-9.4-4.2-9.4-9.4V41.5c0-5.2,4.2-9.4,9.4-9.4h66.9c5.2,0,9.4,4.2,9.4,9.4v46 C106.5,92.7,96.5,102.4,91.3,102.4z M30.3,35.9c-3.1,0-5.6,2.5-5.6,5.6V93c0,3.1,2.5,5.6,5.6,5.6h61c3.1,0,11.5-8.1,11.5-11.1 v-46c0-3.1-2.5-5.6-5.6-5.6H30.3z"/> </g> </g> </g> <g> <g> <g> <path class="st0" d="M55.8,63.1c-1.4,0-2.3,0.8-2.3,2.8v3h-4.2v-2.7c0-4.5,2.3-7.1,6.6-7.1s6.6,2.6,6.6,7.1 c0,3.7-1.4,6.8-5.5,11.1c-2.6,2.8-3.3,4.1-3.3,5.6c0,0.2,0,0.4,0,0.6h8.4v4H49.4v-3.5c0-3.1,1.1-5.5,4.4-9 c3.4-3.6,4.3-5.8,4.3-8.8C58.1,63.7,57.2,63.1,55.8,63.1z"/> </g> </g> <g> <g> <path class="st0" d="M69.3,78.4V81c0,2,0.9,2.7,2.3,2.7s2.3-0.7,2.3-2.7v-6.2c0-2-0.9-2.8-2.3-2.8s-2.3,0.8-2.3,2.8v0.8h-4.2 l0.8-16.3h11.7v4h-7.7l-0.4,6.7h0.1c0.8-1.3,2.1-2.1,3.8-2.1c3.3,0,4.9,2.3,4.9,6.4v6.3c0,4.5-2.3,7.1-6.6,7.1s-6.6-2.6-6.6-7.1 v-2.3H69.3z"/> </g> </g> </g> <g> <g> <g> <path class="st0" d="M104.2,53.6H23.2c-1,0-1.9-0.8-1.9-1.9c0-1,0.8-1.9,1.9-1.9h80.9c1,0,1.9,0.8,1.9,1.9 C106,52.8,105.2,53.6,104.2,53.6z"/> </g> </g> </g> <g> <g> <g> <g> <path class="st8" d="M37.9,41.2L37.9,41.2c-1.9,0-3.4-1.5-3.4-3.4v-7.7c0-1.9,1.5-3.4,3.4-3.4h0c1.9,0,3.4,1.5,3.4,3.4v7.7 C41.3,39.7,39.8,41.2,37.9,41.2z"/> </g> </g> </g> <g> <g> <g> <path class="st8" d="M89.4,41.2L89.4,41.2c-1.9,0-3.4-1.5-3.4-3.4v-7.7c0-1.9,1.5-3.4,3.4-3.4h0c1.9,0,3.4,1.5,3.4,3.4v7.7 C92.8,39.7,91.3,41.2,89.4,41.2z"/> </g> </g> </g> </g> <g> <g> <g> <path class="st4" d="M45.8,39.4h2c1.2,0,1.9,0.7,1.9,2v4c0,1.3-0.6,2-1.9,2h-2V39.4z M47.1,40.5v5.6h0.7c0.4,0,0.6-0.2,0.6-0.8 v-4.1c0-0.6-0.2-0.8-0.6-0.8H47.1z"/> </g> </g> <g> <g> <path class="st4" d="M51.7,42.7h1.7v1.1h-1.7v2.3h2.1v1.1h-3.4v-7.9h3.4v1.1h-2.1V42.7z"/> </g> </g> <g> <g> <path class="st4" d="M58.2,44.4v1.1c0,1.3-0.6,2-1.9,2c-1.2,0-1.9-0.7-1.9-2v-4.1c0-1.3,0.6-2,1.9-2c1.2,0,1.9,0.7,1.9,2v0.8H57 v-0.8c0-0.6-0.2-0.8-0.6-0.8s-0.6,0.2-0.6,0.8v4.3c0,0.6,0.2,0.8,0.6,0.8s0.6-0.2,0.6-0.8v-1.1H58.2z"/> </g> </g> <g> <g> <path class="st4" d="M60.2,42.7h1.7v1.1h-1.7v2.3h2.1v1.1h-3.4v-7.9h3.4v1.1h-2.1V42.7z"/> </g> </g> <g> <g> <path class="st4" d="M65.7,45L65.7,45l0.9-5.6h1.7v7.9h-1.2v-5.7h0l-0.8,5.7h-1.2l-0.9-5.6h0v5.6h-1.1v-7.9h1.7L65.7,45z"/> </g> </g> <g> <g> <path class="st4" d="M72.9,41.2v0.3c0,0.8-0.2,1.3-0.8,1.6v0c0.7,0.3,0.9,0.8,0.9,1.7v0.6c0,1.2-0.6,1.9-1.9,1.9h-2v-7.9h1.9 C72.3,39.4,72.9,40,72.9,41.2z M70.4,40.5v2.1h0.5c0.5,0,0.7-0.2,0.7-0.8v-0.4c0-0.6-0.2-0.8-0.6-0.8H70.4z M70.4,43.8v2.4h0.7 c0.4,0,0.6-0.2,0.6-0.8v-0.7c0-0.7-0.2-1-0.8-1H70.4z"/> </g> </g> <g> <g> <path class="st4" d="M75,42.7h1.7v1.1H75v2.3h2.1v1.1h-3.4v-7.9h3.4v1.1H75V42.7z"/> </g> </g> <g> <g> <path class="st4" d="M80.5,47.3c-0.1-0.2-0.1-0.3-0.1-1v-1.2c0-0.7-0.2-1-0.8-1h-0.4v3.2h-1.2v-7.9h1.9c1.3,0,1.8,0.6,1.8,1.8 v0.6c0,0.8-0.3,1.3-0.8,1.6v0c0.6,0.3,0.8,0.8,0.8,1.7v1.2c0,0.4,0,0.7,0.1,1H80.5z M79.2,40.5V43h0.5c0.5,0,0.7-0.2,0.7-0.8 v-0.8c0-0.6-0.2-0.8-0.6-0.8H79.2z"/> </g> </g> </g> <g> <g> <g> <path class="st0" d="M91.3,102.4c-1,0-1.9-0.8-1.9-1.9V86.8c0-1,0.8-1.9,1.9-1.9h12.9c1,0,1.9,0.8,1.9,1.9c0,1-0.8,1.9-1.9,1.9 h-11v11.8C93.1,101.5,92.3,102.4,91.3,102.4z"/> </g> </g> </g> </g> </g>

</svg>