
<!-- Uploaded to: SVG Repo, www.svgrepo.com, Transformed by: SVG Repo Mixer Tools -->
<svg height="104px" width="104px" version="1.1" id="Layer_1" xmlns="http://www.w3.org/2000/svg"
    xmlns:xlink="http://www.w3.org/1999/xlink" viewBox="0 0 512 512" xml:space="preserve"
    fill="#000000">

<g id="SVGRepo_bgCarrier" stroke-width="0"/>

<g id="SVGRepo_tracerCarrier" stroke-linecap="round" stroke-linejoin="round"/>

<g id="SVGRepo_iconCarrier"> <circle style="fill:#0F8EE3;" cx="449.306" cy="332.258" r="52.287"/> <polygon style="fill:#e9e9ed;" points="167.278,233.054 10.515,233.054 10.515,447.297 167.278,447.297 "/> <path style="fill:#FEBBA0;" d="M213.885,309.634v20.356c0,6.8-4.089,12.934-10.366,15.55l-67.248,28.019 c-14.207,5.92-23.461,22.01-23.461,37.401v81.1h286.38v-81.1c0-15.39-9.255-31.482-23.461-37.401l-67.248-28.019 c-6.278-2.615-10.366-8.75-10.366-15.55v-20.356H213.885z"/> <path style="fill:#102F51;" d="M298.244,331.978c0.711,5.986,4.58,11.205,10.238,13.563l67.248,28.019 c14.206,5.919,23.461,22.01,23.461,37.401v81.1H112.81v-81.1c0-15.39,9.254-31.481,23.461-37.401l67.248-28.019 c5.577-2.324,9.419-7.426,10.209-13.303l42.324,19.795L298.244,331.978z"/> <path style="fill:#FEBBA0;" d="M350.014,189.963l0.096-30.446c0.163-51.835-41.725-93.99-93.561-94.153 c-51.835-0.163-93.99,41.725-94.153,93.561l-0.368-0.001l-0.096,30.446c-12.926-0.041-23.438,10.405-23.479,23.332 c-0.041,12.926,10.405,23.438,23.332,23.479l-0.055,17.474c1.08,14.739,8.224,27.882,19.083,35.102l56.478,32.523 c11.337,7.539,25.152,7.583,36.536,0.115l56.512-32.167c10.904-7.151,18.298-20.248,19.472-34.98l0.055-17.474 c12.926,0.041,23.438-10.405,23.479-23.332C373.386,200.516,362.94,190.004,350.014,189.963z"/> <g> <path style="fill:#102F51;" d="M350.041,245.413v8.538c-1.126,14.736-8.48,27.856-19.362,35.042l-56.41,32.346 c-11.361,7.503-25.176,7.503-36.537,0l-56.58-32.346c-10.881-7.186-18.066-20.306-19.194-35.042v-8.171l-38.234,38.234 l132.459,111.392l132.46-111.391L350.041,245.413z"/> <path style="fill:#102F51;" d="M334.596,87.608c61.91-0.596,104.712,0.763,104.712,18.263c0,24.216-82.043,70.191-183.257,70.191 s-183.257-45.976-183.257-70.19c0-17.48,42.729-18.858,104.556-18.263h157.247V87.608z"/> <path style="fill:#102F51;" d="M359.82,108.974c-33.636,11.506-68.709,17.266-103.769,17.266c-16.119,0-32.25-1.223-48.229-3.655 c-18.778-2.861-37.367-7.398-55.539-13.611l10.409-35.766l11.305-38.853c3.365-11.557,16.119-17.555,27.172-12.767l21.45,9.288 l33.333,14.455h0.189l54.796-23.743c11.052-4.789,23.793,1.21,27.158,12.767l11.317,38.853L359.82,108.974z"/> </g> <path d="M123.725,332.235H44.389c-5.77,0-10.449-4.678-10.449-10.449c0-5.771,4.679-10.449,10.449-10.449h79.336 c5.77,0,10.449,4.678,10.449,10.449C134.174,327.557,129.496,332.235,123.725,332.235z"/> <path d="M108.878,370.872h-0.158c-5.77,0-10.449-4.678-10.449-10.449c0-5.771,4.679-10.449,10.449-10.449h0.158 c5.77,0,10.449,4.678,10.449,10.449C119.327,366.194,114.649,370.872,108.878,370.872z"/> <path d="M74.587,370.873H44.095c-5.77,0-10.449-4.678-10.449-10.449c0-5.771,4.679-10.449,10.449-10.449h30.492 c5.77,0,10.449,4.678,10.449,10.449C85.036,366.195,80.357,370.873,74.587,370.873z"/> <path d="M296.881,416.124h-0.157c-5.77,0-10.449-4.678-10.449-10.449c0-5.771,4.679-10.449,10.449-10.449h0.157 c5.77,0,10.449,4.678,10.449,10.449C307.33,411.446,302.65,416.124,296.881,416.124z"/> <path d="M296.881,457.578h-0.157c-5.77,0-10.449-4.678-10.449-10.449c0-5.771,4.679-10.449,10.449-10.449h0.157 c5.77,0,10.449,4.678,10.449,10.449C307.33,452.9,302.65,457.578,296.881,457.578z"/> <path d="M400.693,425.359h0.01H400.693z"/> <path d="M400.485,472.673h0.01H400.485z"/> <path d="M10.586,502.509h-0.137C4.679,502.509,0,497.831,0,492.06c0-5.771,4.679-10.449,10.449-10.449h0.137 c5.77,0,10.449,4.678,10.449,10.449C21.035,497.831,16.356,502.509,10.586,502.509z"/> <path d="M501.551,502.509h-0.137c-5.77,0-10.449-4.678-10.449-10.449c0-5.771,4.679-10.449,10.449-10.449h0.137 c5.77,0,10.449,4.678,10.449,10.449C512,497.831,507.321,502.509,501.551,502.509z"/> <path d="M294.107,225.982c-6.44,0-11.68-5.239-11.68-11.679c0-6.441,5.24-11.68,11.68-11.68s11.679,5.239,11.679,11.68 C305.785,220.743,300.547,225.982,294.107,225.982z"/> <path d="M217.893,225.982c-6.44,0-11.679-5.239-11.679-11.679c0-6.441,5.239-11.68,11.679-11.68s11.68,5.239,11.68,11.68 C229.572,220.743,224.332,225.982,217.893,225.982z"/> <path d="M256.044,282.962c-11.391,0-20.66-9.268-20.66-20.66c0-5.771,4.679-10.449,10.449-10.449h20.422 c5.77,0,10.449,4.678,10.449,10.449C276.703,273.695,267.435,282.962,256.044,282.962z"/> <path d="M511.085,332.259c0-34.591-28.142-62.734-62.734-62.734c-34.59,0-62.733,28.142-62.733,62.734 c0,31.365,23.138,57.427,53.242,62.015v58.43c0,5.771,4.679,10.449,10.449,10.449s10.449-4.678,10.449-10.449v-58.77 C488.919,388.55,511.085,362.952,511.085,332.259z M448.351,374.093c-23.067,0-41.835-18.766-41.835-41.835 s18.767-41.836,41.835-41.836c23.068,0,41.836,18.767,41.836,41.836S471.419,374.093,448.351,374.093z"/> <path d="M449.309,342.708c-5.77,0-10.449-4.678-10.449-10.449V309.71c0-5.771,4.679-10.449,10.449-10.449 s10.449,4.678,10.449,10.449v22.549C459.758,338.03,455.079,342.708,449.309,342.708z"/> <path d="M449.309,368.28c-5.77,0-10.449-4.678-10.449-10.449v-0.204c0-5.771,4.679-10.449,10.449-10.449s10.449,4.678,10.449,10.449 v0.204C459.758,363.602,455.079,368.28,449.309,368.28z"/> <path d="M369.59,457.578h-39.202c-5.77,0-10.449-4.678-10.449-10.449c0-5.771,4.679-10.449,10.449-10.449h39.202 c5.77,0,10.449,4.678,10.449,10.449C380.039,452.9,375.36,457.578,369.59,457.578z"/> <path d="M467.661,481.611h-58.022V410.96c0-20.368-12.292-39.713-29.89-47.047l-46.729-19.47l62.348-52.433 c2.24-1.884,3.588-4.622,3.715-7.547c0.125-2.925-0.981-5.769-3.051-7.839l-32.516-32.516c11.978-5.22,20.38-17.159,20.38-31.038 c0-15.022-9.836-27.791-23.405-32.205v-10.303c12.109-3.83,22.003-7.735,29.337-10.946c14.059-6.157,59.93-28.226,59.93-53.747 c0-19.627-24.061-23.906-31.968-25.313c-12.699-2.258-29.802-3.326-56.375-3.484l-13.289-45.64 c-2.443-8.391-8.38-15.334-16.289-19.052c-7.909-3.717-17.041-3.856-25.056-0.382l-50.735,21.984L205.32,11.999 c-8.019-3.474-17.154-3.332-25.065,0.383c-7.911,3.718-13.85,10.661-16.293,19.052l-13.281,45.638 c-26.675,0.159-43.81,1.234-56.536,3.516c-21.102,3.785-31.801,12.29-31.801,25.281c0,25.523,45.871,47.592,59.93,53.747 c7.313,3.202,17.171,7.095,29.235,10.914v10.334c-13.569,4.414-23.405,17.182-23.405,32.205c0,3.312,0.503,6.505,1.394,9.533h-4.002 v-1.037c0-5.771-4.679-10.449-10.449-10.449s-10.449,4.678-10.449,10.449v1.037H86.27v-1.037c0-5.771-4.679-10.449-10.449-10.449 s-10.449,4.678-10.449,10.449v1.037h-18.33v-0.96c0-5.771-4.679-10.449-10.449-10.449s-10.449,4.678-10.449,10.449v0.96h-15.63 c-5.77,0-10.449,4.678-10.449,10.449v214.243c0,5.771,4.679,10.449,10.449,10.449h91.845v23.865h-57.92 c-5.77,0-10.449,4.678-10.449,10.449c0,5.771,4.679,10.449,10.449,10.449h423.22c5.77,0,10.449-4.678,10.449-10.449 C478.11,486.287,473.432,481.611,467.661,481.611z M184.028,37.277c0.777-2.67,2.593-4.793,5.116-5.978 c2.52-1.184,5.315-1.229,7.871-0.121l54.778,23.74c1.312,0.569,2.726,0.863,4.158,0.863h0.189c1.428,0,2.843-0.294,4.155-0.861 l54.795-23.743c2.552-1.106,5.343-1.064,7.859,0.12c2.519,1.184,4.334,3.307,5.114,5.98l18.894,64.887 c-29.485,9.047-60.017,13.628-90.904,13.628c-15.546,0-31.242-1.19-46.656-3.535c-14.932-2.275-29.773-5.662-44.247-10.096 L184.028,37.277z M130.658,140.476c-35.336-15.473-46.879-30.208-47.397-34.332c0.797-0.804,4.727-3.81,20.221-5.854 c9.989-1.317,22.956-2.039,41.103-2.262l-2.335,8.026c-1.56,5.36,1.37,11.001,6.652,12.807 c18.614,6.363,37.908,11.092,57.348,14.054c16.452,2.504,33.207,3.773,49.802,3.773c36.518,0,72.568-5.998,107.151-17.828 c5.283-1.807,8.211-7.447,6.651-12.806l-2.337-8.027c18.064,0.223,30.987,0.938,40.948,2.241c15.631,2.044,19.579,5.07,20.378,5.874 c-0.51,4.115-12.048,18.854-47.398,34.333c-21.441,9.388-66.241,25.138-125.393,25.138S152.098,149.864,130.658,140.476z M161.959,200.117c5.77,0,10.449-4.678,10.449-10.449V176.4c23.03,5.675,51.345,10.113,83.643,10.113 c32.25,0,60.53-4.424,83.541-10.087v13.243c0,5.771,4.679,10.449,10.449,10.449c7.144,0,12.956,5.813,12.956,12.956 c0,7.143-5.813,12.956-12.956,12.956c-5.77,0-10.449,4.678-10.449,10.449v17.052c-0.949,11.05-6.443,21.176-14.421,26.577 l-56.1,32.167c-0.19,0.11-0.377,0.225-0.56,0.346c-7.835,5.173-17.185,5.173-25.02,0c-0.187-0.123-0.377-0.241-0.573-0.352 l-56.265-32.164c-7.984-5.406-13.285-15.293-14.246-26.572v-17.054c0-5.771-4.679-10.449-10.449-10.449 c-7.144,0-12.956-5.813-12.956-12.956C149.003,205.929,154.815,200.117,161.959,200.117z M107.389,388.615H43.736 c-5.77,0-10.449,4.678-10.449,10.449c0,5.771,4.679,10.449,10.449,10.449h58.651c-0.014,0.482-0.027,0.963-0.027,1.447v25.887 H20.964V243.503h5.181v0.95c0,5.771,4.679,10.449,10.449,10.449s10.449-4.678,10.449-10.449v-0.95h18.329v0.874 c0,5.771,4.679,10.449,10.449,10.449s10.449-4.678,10.449-10.449v-0.874h18.33v0.874c0,5.771,4.679,10.449,10.449,10.449 c5.77,0,10.449-4.678,10.449-10.449v-0.874h21.674c0.516,0.252,1.034,0.497,1.564,0.723l-28.467,28.469H44.389 c-5.77,0-10.449,4.678-10.449,10.449c0,5.771,4.679,10.449,10.449,10.449h74.491l60.346,50.749l-46.974,19.573 C121.398,368.437,112.568,377.533,107.389,388.615z M245.602,481.611H123.259V410.96c0-11.777,7.322-23.71,17.031-27.756 l56.939-23.724l48.374,40.681V481.611z M139.168,283.349l14.969-14.969c3.785,12.244,11.249,22.725,21.256,29.333 c0.187,0.124,0.377,0.241,0.573,0.352l56.307,32.189c7.335,4.764,15.53,7.145,23.728,7.145c8.199,0,16.398-2.383,23.734-7.149 l56.142-32.192c0.19-0.11,0.377-0.225,0.56-0.346c10.158-6.708,17.717-17.299,21.498-29.627l15.263,15.263l-117.014,98.406 L139.168,283.349z M388.741,481.611H266.5v-81.227l48.518-40.801l56.694,23.622c9.708,4.045,17.03,15.978,17.03,27.756v70.651 H388.741z"/> </g>

</svg>