<!DOCTYPE svg PUBLIC "-//W3C//DTD SVG 1.1//EN" "http://www.w3.org/Graphics/SVG/1.1/DTD/svg11.dtd">
<!-- Uploaded to: SVG Repo, www.svgrepo.com, Transformed by: SVG Repo Mixer Tools -->
<svg fill="#000000" height="64px" width="64px" version="1.1" id="Layer_1" xmlns="http://www.w3.org/2000/svg" xmlns:xlink="http://www.w3.org/1999/xlink" viewBox="0 0 312.856 312.856" xml:space="preserve">
<g id="SVGRepo_bgCarrier" stroke-width="0"/>
<g id="SVGRepo_tracerCarrier" stroke-linecap="round" stroke-linejoin="round"/>
<g id="SVGRepo_iconCarrier"> <g> <g> <g> <path d="M222.028,214.727c0.292,0,0.584-0.06,0.868-0.192l32.716-15.112c1.036-0.476,1.488-1.704,1.008-2.74 c-0.48-1.04-1.716-1.488-2.74-1.008l-32.716,15.112c-1.036,0.476-1.488,1.704-1.008,2.74 C220.504,214.283,221.244,214.727,222.028,214.727z"/> <path d="M194.692,225.287c0.348,0.756,1.092,1.2,1.872,1.2c0.292,0,0.584-0.064,0.868-0.192l13.872-6.408 c1.036-0.476,1.484-1.704,1.008-2.74c-0.484-1.04-1.712-1.492-2.74-1.008l-13.872,6.408 C194.664,223.023,194.212,224.251,194.692,225.287z"/> <path d="M213.468,227.631c0.348,0.76,1.1,1.212,1.884,1.212c0.284,0,0.576-0.064,0.856-0.184l38.48-17.44 c1.036-0.472,1.496-1.696,1.028-2.736c-0.468-1.032-1.692-1.48-2.736-1.028l-38.48,17.44 C213.46,225.367,213,226.591,213.468,227.631z"/> <path d="M312.856,242.155c0-7.068-9.936-12.576-31.276-17.34c-1.56-0.348-3.168,0.644-3.52,2.236 c-0.36,1.588,0.648,3.168,2.236,3.52c26.36,5.888,26.66,11.352,26.66,11.584c0,9.096-57.264,21.78-150.528,21.78 c-93.26,0-150.528-12.684-150.528-21.78c0-0.232,0.304-5.704,26.664-11.588c1.588-0.352,2.592-1.932,2.236-3.52 c-0.352-1.596-1.944-2.58-3.52-2.236C9.94,229.575,0,235.083,0,242.155c0,13.06,38.696,20.764,83.036,24.604 c-0.596,0.376-1.012,1.02-0.992,1.78c0.172,6.604,5.488,11.992,11.896,12.112c2.204,0.436,20.208,3.728,63.784,3.728 c40.016,0,61.636-3.716,61.492-3.724c6.512,0,11.944-5.436,12.116-12.116c0.02-0.784-0.416-1.452-1.048-1.816 C274.428,262.867,312.856,255.171,312.856,242.155z M227.2,268.431c-0.112,4.46-3.696,8.092-8.344,8.124 c-0.212,0.036-21.524,3.688-61.132,3.688c-45.144,0-62.964-3.64-63.136-3.676c-0.136-0.028-0.284-0.044-0.424-0.044 c-4.292,0-7.872-3.632-7.988-8.092c-0.016-0.58-0.272-1.092-0.668-1.456c23.892,1.984,49.232,2.864,70.924,2.864 c21.924,0,47.572-0.9,71.688-2.928C227.604,267.259,227.22,267.763,227.2,268.431z"/> <path d="M40.4,241.679c0.824,2.392,1.96,5.668,70.972,7.548c18.964,0.516,39.1,0.776,58.388,0.776 c16.208,0,31.812-0.18,45.608-0.552c56.176-1.504,57.676-5.188,58.668-7.62c3.296-8.092,3.456-8.728,3.324-13.58 c-0.028-0.96-0.056-2.128-0.056-3.652c0-44.132-28.724-83.792-73.176-101.036c-1.512-0.576-3.224,0.168-3.816,1.688 c-0.592,1.516,0.168,3.228,1.688,3.82c42.16,16.356,69.4,53.856,69.4,95.532c0,1.584,0.032,2.808,0.064,3.808 c0.1,3.756,0.1,3.848-2.676,10.672c-12.724,6.8-206.124,6.576-223.124-0.216l-0.42-1.196c-1.788-5.084-2.16-6.144-2.16-13.068 c0-40.152,25.864-77.092,65.892-94.104c1.496-0.64,2.196-2.368,1.56-3.868c-0.644-1.504-2.372-2.196-3.872-1.56 c-42.208,17.936-69.484,57.004-69.484,99.532c0,7.616,0.52,9.404,2.496,15.024L40.4,241.679z"/> <path d="M68.292,197.431c-1.072-0.34-2.244,0.272-2.58,1.364c-1.388,4.472-2.404,9.056-3.036,13.616 c-0.156,1.128,0.632,2.172,1.764,2.324c0.096,0.012,0.192,0.02,0.284,0.02c1.012,0,1.9-0.752,2.04-1.784 c0.596-4.332,1.572-8.692,2.892-12.956C69.992,198.927,69.38,197.767,68.292,197.431z"/> <path d="M70.828,192.927c0.796,0,1.56-0.468,1.896-1.248c4.968-11.524,12.424-22.044,21.552-30.428 c0.844-0.768,0.896-2.08,0.124-2.916c-0.772-0.844-2.08-0.896-2.912-0.124c-9.56,8.772-17.36,19.78-22.556,31.836 c-0.456,1.044,0.028,2.26,1.076,2.708C70.276,192.875,70.556,192.927,70.828,192.927z"/> <path d="M101.736,150.067c-0.932,0.648-1.172,1.936-0.524,2.876c0.404,0.576,1.044,0.892,1.7,0.892 c0.408,0,0.812-0.12,1.176-0.368c16.304-11.252,36.56-17.448,57.056-17.448h0.02c1.136,0,2.064-0.924,2.064-2.068 c0-1.144-0.82-2.112-2.084-2.064C139.82,131.887,118.72,138.343,101.736,150.067z"/> <path d="M115.376,124.927c0.144,0.388,0.364,0.712,0.632,1c1.664,2.42,3.976,4.396,6.736,5.564 c0.264,0.112,0.54,0.164,0.812,0.164c0.808,0,1.58-0.476,1.912-1.268c0.452-1.06-0.044-2.28-1.1-2.728 c-0.976-0.412-1.876-0.984-2.692-1.656c22.408-6.668,47.128-6.892,69.632-0.504c0.712,5.4,4.312,10.192,9.352,12.324 c0.264,0.108,0.536,0.164,0.808,0.164c0.808,0,1.584-0.476,1.92-1.272c0.448-1.056-0.048-2.28-1.112-2.728 c-3.772-1.596-6.556-5.404-6.92-9.476c-0.356-3.964,1.404-8.108,4.708-11.088c0.596-0.54,1.244-1.052,1.884-1.56 c1.84-1.456,3.748-2.96,4.884-5.232c1.008-1.996,1.152-4.124,1.164-5.76c0.032-5.808-1.78-11.7-5.1-16.58 c-0.648-0.956-1.944-1.188-2.892-0.548c-0.952,0.648-1.196,1.94-0.548,2.888c2.848,4.192,4.4,9.244,4.376,14.212 c-0.012,1.752-0.236,2.96-0.72,3.916c-0.724,1.444-2.196,2.604-3.752,3.836c-0.712,0.568-1.428,1.128-2.092,1.732 c-2.812,2.54-4.732,5.772-5.596,9.184c-2.44-0.664-4.896-1.292-7.376-1.812c0.004-0.02,0.016-0.04,0.016-0.064 c0.016-0.224,0.028-0.448,0.028-0.676c0-14.284-11.904-25.9-26.532-25.9c-3.904,0-7.664,0.812-11.172,2.396 c-9.328,4.236-15.356,13.456-15.356,23.5c0,0.156,0.008,0.348,0.024,0.592c-4.472,0.892-8.896,1.964-13.224,3.328 c-0.316-0.876-0.556-1.78-0.64-2.704c-0.352-3.964,1.404-8.112,4.704-11.092c0.596-0.536,1.24-1.04,1.876-1.548 c1.844-1.46,3.756-2.968,4.896-5.232c1.012-2.008,1.148-4.136,1.16-5.76c0.036-5.8-1.776-11.688-5.092-16.584 c-0.648-0.948-1.932-1.192-2.892-0.552c-0.952,0.648-1.196,1.944-0.556,2.892c2.856,4.196,4.408,9.252,4.38,14.216 c-0.008,1.744-0.228,2.952-0.712,3.916c-0.728,1.444-2.204,2.604-3.76,3.836c-0.716,0.564-1.428,1.128-2.092,1.728 c-4.264,3.856-6.532,9.292-6.06,14.552C113.504,120.823,114.244,122.991,115.376,124.927z M143.536,115.679 c0.684-7.104,6.788-12.704,14.284-12.704c7.48,0,13.572,5.58,14.26,12.828C162.608,114.743,153.016,114.699,143.536,115.679z M148.352,97.227c2.968-1.352,6.152-2.032,9.464-2.032c12.224,0,22.156,9.576,22.344,21.784c-1.284-0.224-2.568-0.46-3.86-0.648 c-0.348-9.696-8.476-17.492-18.48-17.492c-9.96,0-18.048,7.724-18.468,17.36c-1.308,0.176-2.616,0.308-3.916,0.524 C135.532,108.395,140.572,100.759,148.352,97.227z"/> <path d="M161.804,85.967c0.276,0.124,0.568,0.184,0.856,0.184c0.792,0,1.552-0.456,1.896-1.228 c0.472-1.048,0.004-2.28-1.044-2.752c-3.8-1.708-6.6-5.792-6.968-10.164c-0.36-4.276,1.416-8.732,4.748-11.928 c0.604-0.572,1.248-1.112,1.888-1.656c1.84-1.536,3.736-3.128,4.864-5.508c0.992-2.088,1.128-4.308,1.136-6.008 c0.032-6.108-1.764-12.316-5.064-17.468c-0.628-0.976-1.924-1.252-2.876-0.628c-0.968,0.616-1.252,1.908-0.628,2.872 c2.868,4.488,4.436,9.888,4.408,15.208c-0.008,1.884-0.236,3.192-0.732,4.244c-0.736,1.556-2.212,2.796-3.78,4.104 c-0.716,0.596-1.428,1.2-2.092,1.84c-4.232,4.052-6.48,9.764-6.016,15.276C152.896,78.279,156.588,83.623,161.804,85.967z"/> </g> </g> </g> </g>
</svg>