
<!-- Uploaded to: SVG Repo, www.svgrepo.com, Transformed by: SVG Repo Mixer Tools -->
<svg version="1.1" id="Layer_1" xmlns="http://www.w3.org/2000/svg"
    xmlns:xlink="http://www.w3.org/1999/xlink" viewBox="0 0 512 512" xml:space="preserve"
    width="80px" height="80px" fill="#000000">

<g id="SVGRepo_bgCarrier" stroke-width="0"/>

<g id="SVGRepo_tracerCarrier" stroke-linecap="round" stroke-linejoin="round"/>

<g id="SVGRepo_iconCarrier"> <g> <path style="fill:#FF6600;" d="M421.974,220.987c21.76-10.837,14.677-52.309,13.227-60.501l-17.067,3.413 c2.987,14.763,3.243,38.229-4.011,41.898L421.974,220.987z M306.262,123.365l-15.189-7.68 c-13.056,26.112-11.947,63.147-10.411,80.64h-9.045c-3.413-22.101-9.045-93.867,49.408-143.019 c-4.011,29.696-7.765,81.835,11.349,105.13c6.307,7.902,15.918,12.438,26.027,12.288c33.051-1.395,61.76-23.165,72.021-54.613 c12.63,22.955,30.038,65.024,13.995,102.4c-1.885,4.319,0.088,9.349,4.408,11.234c1.086,0.474,2.259,0.716,3.444,0.712 c13.774,0.158,27.529-1.101,41.046-3.754c-4.805,27.412-23.617,50.305-49.578,60.33v-13.91c0-4.713-3.821-8.534-8.534-8.534h-76.8 v-59.734c0-4.713-3.821-8.534-8.534-8.534h-52.055C296.448,181.308,294.826,146.235,306.262,123.365z"/> <path style="fill:#FF6600;" d="M429.071,223.305c22.752-11.332,15.346-54.696,13.83-63.261l-17.845,3.569 c3.123,15.436,3.391,39.973-4.193,43.81L429.071,223.305z M271.855,197.519c-3.569-23.109-9.458-98.149,51.662-149.543 c-4.193,31.051-8.12,85.567,11.867,109.926c6.595,8.262,16.643,13.006,27.214,12.848c34.558-1.459,64.577-24.223,75.307-57.105 c13.205,24.002,31.408,67.99,14.633,107.071c-1.971,4.517,0.092,9.775,4.608,11.746c1.135,0.496,2.362,0.749,3.6,0.745 c14.402,0.165,28.784-1.15,42.918-3.926c-5.024,28.663-24.694,52.6-51.841,63.083v-14.544c0-4.927-3.995-8.922-8.922-8.922h-80.304 v-62.458c0-4.927-3.995-8.922-8.922-8.922h-81.82V197.519z"/> </g> <path style="fill:#FF5400;" d="M455.496,277.822c0-9.856-7.99-17.845-17.845-17.845h-61.389c-5.37,0.15-9.843-4.081-9.994-9.451 c-0.005-0.181-0.005-0.362,0-0.543v-38.011c0-12.911-10.466-23.377-23.377-23.377h-63.351c-2.922,0.006-5.343-2.26-5.532-5.175 c-2.97-33.538,4.61-67.166,21.682-96.186c1.585-2.612,4.987-3.445,7.599-1.86c1.676,1.017,2.688,2.844,2.662,4.805 c0,28.374,3.48,56.57,17.31,73.344c8.303,10.301,20.854,16.249,34.084,16.15c14.864-0.779,29.358-4.929,42.383-12.135 c3.47-2.071,7.961-0.938,10.032,2.531c0.64,1.071,0.995,2.288,1.031,3.536c0,10.885,0,24.804,0,26.143l-7.227,3.658l16.239,31.853 l7.942-3.926c3.78-1.872,7.147-4.482,9.904-7.674c-0.344,9.85,7.36,18.114,17.209,18.459c0.212,0.007,0.423,0.012,0.635,0.01 c5.175,0,12.848,0,21.147-0.803c3.041-0.291,5.742,1.94,6.033,4.981c0.107,1.121-0.13,2.246-0.679,3.228 C475.967,261.249,466.789,271.044,455.496,277.822z M416.86,155.137c6.358-5.846,11.802-12.613,16.15-20.075 c1.338,3.123,2.677,6.424,3.926,9.815c1.092,2.853-0.336,6.052-3.19,7.143c-0.296,0.113-0.603,0.202-0.915,0.263L416.86,155.137z"/> <path style="fill:#FF6600;" d="M421.974,220.987c21.76-10.837,14.677-52.309,13.227-60.501l-17.067,3.413 c2.987,14.763,3.243,38.229-4.011,41.898L421.974,220.987z"/> <g> <polygon style="fill:#875426;" points="341.334,349.926 341.334,401.126 264.533,401.126 187.733,401.126 187.733,349.926 264.533,349.926 "/> <polygon style="fill:#875426;" points="426.667,418.193 426.667,469.392 273.066,469.392 273.066,418.193 349.866,418.193 "/> <polygon style="fill:#875426;" points="170.666,349.926 170.666,401.126 93.867,401.126 17.067,401.126 17.067,349.926 93.867,349.926 "/> <polygon style="fill:#875426;" points="426.667,281.66 426.667,332.859 349.866,332.859 273.066,332.859 273.066,281.66 349.866,281.66 "/> <polygon style="fill:#875426;" points="341.334,213.392 341.334,264.593 264.533,264.593 187.733,264.593 187.733,213.392 "/> <polygon style="fill:#875426;" points="85.333,281.66 85.333,332.859 17.067,332.859 17.067,281.66 42.667,281.66 "/> </g> <g> <polygon style="fill:#B37D4D;" points="255.999,418.193 255.999,469.392 102.4,469.392 102.4,418.193 179.2,418.193 "/> <rect x="358.398" y="349.924" style="fill:#B37D4D;" width="68.262" height="51.2"/> <polygon style="fill:#B37D4D;" points="255.999,281.66 255.999,332.859 179.2,332.859 102.4,332.859 102.4,281.66 179.2,281.66 "/> <polygon style="fill:#B37D4D;" points="170.666,213.392 170.666,264.593 93.867,264.593 51.2,264.593 51.2,213.392 "/> </g> <g> <path style="fill:#42210B;" d="M435.2,160.485c1.622,8.534,8.534,49.663-13.056,60.501l-7.68-15.189 c7.254-3.669,6.997-27.136,4.011-41.898L435.2,160.485z"/> <path style="fill:#42210B;" d="M358.4,401.126h68.267v-51.2H358.4V401.126z M255.999,332.859v-51.2H102.4v51.2H255.999z M255.999,469.392v-51.2H102.4v51.2H255.999z M341.334,349.926H187.733v51.2h153.6v-51.2H341.334z M264.533,264.593h76.8v-51.2 H187.733v51.2L264.533,264.593L264.533,264.593z M273.066,332.859h153.6v-51.2h-153.6V332.859z M273.066,469.392h153.6v-51.2 h-153.6V469.392z M306.262,123.365c-11.434,22.869-9.813,57.941-8.534,72.96h52.139c4.713,0,8.534,3.821,8.534,8.534v59.734h76.8 c4.713,0,8.534,3.821,8.534,8.534v13.91c25.962-10.026,44.774-32.918,49.578-60.33c-13.517,2.655-27.271,3.913-41.046,3.754 c-4.713-0.004-8.531-3.828-8.526-8.54c0.001-1.142,0.231-2.271,0.675-3.321c16.043-37.461-1.365-79.531-13.995-102.4 c-10.29,31.414-38.994,53.146-72.021,54.528c-9.96,0.019-19.384-4.505-25.6-12.288c-19.115-23.296-15.36-75.435-11.349-105.13 c-58.88,49.152-53.248,120.918-49.835,143.019h9.045c-1.536-17.493-2.645-54.528,10.411-80.64L306.262,123.365z M93.867,349.926 h-76.8v51.2h153.6v-51.2H93.867z M51.2,264.593h119.466v-51.2H51.2V264.593z M85.333,332.859v-51.2H17.067v51.2H85.333z M264.533,486.459H93.867c-4.713,0-8.534-3.821-8.534-8.534v-59.734H8.534c-4.713,0-8.534-3.821-8.534-8.534V273.126 c0-4.713,3.821-8.534,8.534-8.534h25.6v-59.734c0-4.713,3.821-8.534,8.534-8.534H254.55 c-3.754-30.038-6.912-118.016,73.642-169.301c3.895-2.654,9.203-1.648,11.857,2.247c1.321,1.939,1.785,4.336,1.284,6.628 c-4.778,23.723-13.227,90.198,4.437,111.701c2.999,3.922,7.693,6.174,12.63,6.059c2.133,0,52.309-1.109,59.734-60.758 c0.581-4.676,4.842-7.998,9.519-7.417c2.288,0.284,4.365,1.482,5.755,3.322c2.048,2.73,47.445,64.256,30.89,124.245 c11.297,0.187,22.529-1.753,33.109-5.717c2.511-2.334,6.174-2.938,9.302-1.536c3.102,1.272,5.172,4.244,5.291,7.595 c0,0.768-1.024,70.486-68.267,91.563v172.97c0,4.713-3.821,8.534-8.534,8.534H264.533V486.459z"/> </g> <path style="fill:#CC9966;" d="M65.706,221.926h90.453c3.299,0,5.973,2.675,5.973,5.973v22.186c0,3.299-2.675,5.973-5.973,5.973 H65.706c-3.299,0-5.973-2.675-5.973-5.973v-22.186C59.734,224.601,62.408,221.926,65.706,221.926z"/> <g> <path style="fill:#996632;" d="M202.24,221.926h124.586c3.299,0,5.973,2.675,5.973,5.973v22.186c0,3.299-2.675,5.973-5.973,5.973 H202.24c-3.299,0-5.973-2.675-5.973-5.973v-22.186C196.267,224.601,198.941,221.926,202.24,221.926z"/> <path style="fill:#996632;" d="M31.573,290.192h39.253c3.299,0,5.973,2.675,5.973,5.973v22.186c0,3.299-2.675,5.973-5.973,5.973 H31.573c-3.299,0-5.973-2.675-5.973-5.973v-22.186C25.6,292.867,28.274,290.192,31.573,290.192z"/> </g> <path style="fill:#CC9966;" d="M116.907,290.192h124.586c3.299,0,5.973,2.675,5.973,5.973v22.186c0,3.299-2.675,5.973-5.973,5.973 H116.907c-3.299,0-5.973-2.675-5.973-5.973v-22.186C110.934,292.867,113.607,290.192,116.907,290.192z"/> <g> <path style="fill:#996632;" d="M287.573,290.192h124.586c3.299,0,5.973,2.675,5.973,5.973v22.186c0,3.299-2.675,5.973-5.973,5.973 H287.573c-3.299,0-5.973-2.675-5.973-5.973v-22.186C281.6,292.867,284.274,290.192,287.573,290.192z"/> <path style="fill:#996632;" d="M31.573,358.459h124.586c3.299,0,5.973,2.675,5.973,5.973v22.186c0,3.299-2.675,5.973-5.973,5.973 H31.573c-3.299,0-5.973-2.675-5.973-5.973v-22.186C25.6,361.134,28.274,358.459,31.573,358.459z"/> <path style="fill:#996632;" d="M202.24,358.459h124.586c3.299,0,5.973,2.675,5.973,5.973v22.186c0,3.299-2.675,5.973-5.973,5.973 H202.24c-3.299,0-5.973-2.675-5.973-5.973v-22.186C196.267,361.134,198.941,358.459,202.24,358.459z"/> </g> <path style="fill:#CC9966;" d="M372.907,358.459h39.253c3.299,0,5.973,2.675,5.973,5.973v22.186c0,3.299-2.675,5.973-5.973,5.973 h-39.253c-3.299,0-5.973-2.675-5.973-5.973v-22.186C366.933,361.134,369.608,358.459,372.907,358.459z"/> <path style="fill:#996632;" d="M287.573,426.725h124.586c3.299,0,5.973,2.675,5.973,5.973v22.186c0,3.299-2.675,5.973-5.973,5.973 H287.573c-3.299,0-5.973-2.675-5.973-5.973v-22.186C281.6,429.4,284.274,426.725,287.573,426.725z"/> <path style="fill:#CC9966;" d="M110.934,432.699v28.16h136.533v-34.133h-130.56C113.607,426.725,110.934,429.4,110.934,432.699 L110.934,432.699z"/> </g>

</svg>