<?xml version="1.0" encoding="iso-8859-1"?>
<!-- Uploaded to: SVG Repo, www.svgrepo.com, Generator: SVG Repo Mixer Tools -->
<svg height="800px" width="800px" version="1.1" id="Layer_1" xmlns="http://www.w3.org/2000/svg"
	xmlns:xlink="http://www.w3.org/1999/xlink"
	viewBox="0 0 481.04 481.04" xml:space="preserve">
<path style="fill:#EBEBEB;" d="M351.04,232.68h-224c-4.424,0-8,3.584-8,8v216c0,13.232,10.768,24,24,24h192
	c13.232,0,24-10.768,24-24v-216C359.04,236.264,355.464,232.68,351.04,232.68z"/>
<path style="fill:#EFEFEF;" d="M135.04,456.68v-216c0-4.416,3.576-8,8-8h-16c-4.424,0-8,3.584-8,8v216c0,13.232,10.768,24,24,24h16
	C145.808,480.68,135.04,469.912,135.04,456.68z"/>
<path style="fill:#E6E6E6;" d="M368.56,46.68c-6.992,0-14.016,0.704-21.352,2.136C319.808,17.96,280.72,0.36,239.2,0.36
	c-41.088,0-80.048,17.432-107.592,47.992c-6.432-1.112-12.816-1.672-19.048-1.672C50.488,46.68,0,97.136,0,159.16
	c0,62.064,50.496,112.56,112.56,112.56c15.648,0,30.832-3.248,45.184-9.656c24.192,16.544,52.248,25.256,81.448,25.256
	c29.728,0,58.144-8.944,82.488-25.912c14.832,6.84,30.568,10.312,46.88,10.312c62.024,0,112.48-50.496,112.48-112.56
	C481.04,97.136,430.584,46.68,368.56,46.68z"/>
<path style="fill:#EBEBEB;" d="M24,183.16c0-62.024,50.496-112.48,112.56-112.48c6.224,0,12.608,0.56,19.04,1.664
	c27.552-30.552,66.512-47.984,107.6-47.984c41.52,0,80.608,17.6,108.016,48.456c7.336-1.432,14.36-2.136,21.352-2.136
	c24.896,0,47.848,8.232,66.504,21.976C438.568,64.84,405.688,46.68,368.56,46.68c-6.992,0-14.016,0.704-21.352,2.136
	C319.808,17.96,280.72,0.36,239.2,0.36c-41.088,0-80.048,17.432-107.592,47.992c-6.432-1.112-12.816-1.672-19.048-1.672
	C50.488,46.68,0,97.136,0,159.16c0,37.144,18.168,70.048,46,90.56C32.24,231.056,24,208.08,24,183.16z"/>
<path style="fill:#E6E6E6;" d="M343.2,57.08c0,0-43.36,20.56-40.4,62.56"/>
<path style="fill:#CCCCCC;" d="M302.792,127.64c-4.168,0-7.672-3.224-7.968-7.44c-3.312-46.912,42.976-69.416,44.944-70.352
	c4.008-1.904,8.768-0.192,10.656,3.8s0.192,8.752-3.784,10.648l0,0c-1.568,0.752-38.4,18.864-35.864,54.784
	c0.312,4.408-3.008,8.232-7.416,8.544C303.176,127.632,302.976,127.64,302.792,127.64z"/>
<path style="fill:#E6E6E6;" d="M134.48,56.68c0,0,0.08,0.08,0.32,0.16c3.76,1.92,42.96,22.48,40.08,62.48"/>
<g>
	<path style="fill:#CCCCCC;" d="M174.888,127.32c-0.192,0-0.384-0.008-0.576-0.016c-4.408-0.32-7.728-4.152-7.408-8.552
		c2.464-34.256-31.752-52.744-35.728-54.768c-0.76-0.376-1.528-0.872-2.088-1.376c-3.264-2.968-3.504-8.032-0.536-11.304
		c2.52-2.768,6.544-3.36,9.696-1.672c0.064,0.024,0.12,0.056,0.176,0.088c4.88,2.488,47.64,25.6,44.432,70.184
		C182.56,124.104,179.048,127.32,174.888,127.32z"/>
	<path style="fill:#CCCCCC;" d="M319.04,416.68h-16v-48c0-4.416-3.576-8-8-8s-8,3.584-8,8v48h-40v-48c0-4.416-3.576-8-8-8
		s-8,3.584-8,8v48h-40v-48c0-4.416-3.576-8-8-8s-8,3.584-8,8v48h-48c-4.424,0-8,3.584-8,8s3.576,8,8,8h192c4.424,0,8-3.584,8-8
		S323.464,416.68,319.04,416.68z"/>
</g>
</svg>