
<!-- Uploaded to: SVG Repo, www.svgrepo.com, Transformed by: SVG Repo Mixer Tools -->
<svg width="100px" height="100px" viewBox="0 -22.06 406.51 406.51"
    xmlns="http://www.w3.org/2000/svg" fill="#000000">

    <g id="SVGRepo_bgCarrier" stroke-width="0" />

    <g id="SVGRepo_tracerCarrier" stroke-linecap="round" stroke-linejoin="round" />

    <g id="SVGRepo_iconCarrier">

        <defs>

            <style>.a{fill:#ffffff;}.b{fill:#7a7473;}.c{fill:#211715;}.d{fill:#b7bbaf;}</style>

        </defs>

        <path class="a"
            d="M179.437,192.464c-1-.4-3.787-1.666-4.155-1.8-5.552-2-5.333-5.575-6.033-9.569a78.143,78.143,0,0,1-1.233-13.109c12.929-7.66,22.969-24.624,24.852-29.734.31-.942.942-2.717,1.5-4.823l1.174-.182a14.741,14.741,0,0,0,6.859-3.092,22.229,22.229,0,0,0,5.753-7.55,35.005,35.005,0,0,0,3.569-18.554,11.68,11.68,0,0,0-1.223-4.7,8.259,8.259,0,0,0-5.94-3.949,8.747,8.747,0,0,0-7,2.048s2-48.03-57.765-48.03c-50,0-59.035,33.4-59.627,44.549a32.33,32.33,0,0,0-.028,3.481,8.751,8.751,0,0,0-7-2.048,8.261,8.261,0,0,0-5.94,3.949,11.68,11.68,0,0,0-1.223,4.7,35.005,35.005,0,0,0,3.569,18.554,22.254,22.254,0,0,0,5.753,7.55,14.746,14.746,0,0,0,6.859,3.092s.845.13,2.236.341a59.521,59.521,0,0,0,11.344,22.146,53.167,53.167,0,0,0,14.61,12.512,78.79,78.79,0,0,1-1.233,12.849c-.7,3.994-.481,7.564-6.034,9.569-.367.133-3,1.3-4.155,1.8,0,0,2.172,21.364,37.728,21.364S179.437,192.464,179.437,192.464Z" />

        <path class="b"
            d="M122.856,3.062C109.775,4.554,96.313,9.262,85.4,20.243L90.625,24.7c-8.9,5.5-15.892,16.155-19.1,25.587-3.779,11.1-4.907,26.889-.42,45.547l.032.137a8.217,8.217,0,0,1,2.011-.568,8.751,8.751,0,0,1,7,2.048l7.5-4.468.616-.368c15.864-14.845,24.709-20.991,38.927-32.161.087.99,3.257,8.915,4,9.217.913.372,10.078-5.294,17.537-9.9L161.316,61.3c5.783,1.265,11.21,4.407,16.1,8.611,8.662,7.454,15.628,18.247,19.875,27.849a8.566,8.566,0,0,1,7.277-2.356,8.236,8.236,0,0,1,1.525.379c4.35-11.175,4.987-27.364-.506-42.723-3.862-10.8-13.071-22.091-20.331-25.268l-8.572-6.109C168.268,10.159,154.247,3.094,136.3,2.545A93.614,93.614,0,0,0,122.856,3.062Z" />

        <path class="c"
            d="M199.262,99.149a6.26,6.26,0,0,1,8.793.814c1.144,1.509,1.276,3.6,1.362,5.416a31.6,31.6,0,0,1-.349,6.648c-1.3,7.825-5.436,17.417-14.159,18.907a2.419,2.419,0,0,0-1.676,2.952,2.455,2.455,0,0,0,2.952,1.676c8.8-1.5,14.009-9.8,16.442-17.716a36.824,36.824,0,0,0,1.566-12.91c-.252-4.221-1.441-8.154-5.25-10.461a11.237,11.237,0,0,0-13.075,1.28,2.421,2.421,0,0,0,0,3.394,2.449,2.449,0,0,0,3.394,0Z" />

        <path class="c"
            d="M193.057,126.734a30.072,30.072,0,0,1-1.477,7.732c-.26.859-.544,1.71-.83,2.561-.091.271-.187.539-.28.809-.028.079-.065.155-.093.234-.159.438.216-.482.028-.065a60.1,60.1,0,0,1-3.909,7.144,69.813,69.813,0,0,1-15.631,18,29.782,29.782,0,0,1-11.563,5.84c-3.009.689-1.736,5.318,1.276,4.628,8.673-1.988,15.937-8.232,21.667-14.763a75.392,75.392,0,0,0,12.119-18.011,37.9,37.9,0,0,0,3.493-14.107c.1-3.089-4.7-3.086-4.8,0Z" />

        <path class="c"
            d="M81.842,95.755a11.211,11.211,0,0,0-11.508-2.037c-4.138,1.689-6.146,5.234-6.667,9.528a35.806,35.806,0,0,0,6.139,24.465c2.852,3.935,6.837,7.018,11.718,7.851a2.47,2.47,0,0,0,2.952-1.676,2.419,2.419,0,0,0-1.676-2.952c-8.722-1.49-12.856-11.082-14.159-18.907a31.489,31.489,0,0,1-.358-6.427c.075-1.836.18-3.931,1.273-5.489a6.232,6.232,0,0,1,8.892-.962,2.462,2.462,0,0,0,3.394,0,2.421,2.421,0,0,0,0-3.394Z" />

        <path class="c"
            d="M80.2,125.832a70.148,70.148,0,0,0,8.967,24.845c5.082,8.264,12.425,15.728,21.074,20.238a40.607,40.607,0,0,0,14.693,4.405,2.415,2.415,0,0,0,2.4-2.4,2.454,2.454,0,0,0-2.4-2.4c-17.661-1.822-31.407-17.633-36.955-33.544a78.238,78.238,0,0,1-3.151-12.42,2.419,2.419,0,0,0-2.952-1.676,2.454,2.454,0,0,0-1.676,2.952Z" />

        <path class="c"
            d="M184.041,29.865a27.947,27.947,0,0,1,8.9,7.008,54.355,54.355,0,0,1,7.974,11.511c4.644,8.919,6.483,19.458,6.179,29.451a54.307,54.307,0,0,1-2.551,15.158c-.956,2.945,3.677,4.206,4.629,1.276,3.225-9.934,3.43-20.761,1.606-30.986A59.713,59.713,0,0,0,197.629,34.95c-3.071-3.635-6.769-7.257-11.165-9.23a2.475,2.475,0,0,0-3.284.861,2.42,2.42,0,0,0,.861,3.284Z" />

        <path class="c"
            d="M94.869,19.985C84.412,23.9,76.651,33.346,71.893,43.159c-4.651,9.591-6.3,20.315-6.092,30.91a105.752,105.752,0,0,0,2.985,22.4c.716,3,5.345,1.732,4.629-1.276-4.858-20.395-4.5-43.765,9.621-60.567,3.541-4.212,7.89-8.063,13.109-10.016a2.466,2.466,0,0,0,1.676-2.952,2.419,2.419,0,0,0-2.952-1.677Z" />

        <path class="c"
            d="M151.294,55.366c-5.007,3.073-9.971,6.219-15.048,9.177-1.014.59-2.032,1.174-3.066,1.729-.405.218-.813.432-1.225.635-.16.079-.322.155-.483.231-.294.14-.489.168-.042.026a1.524,1.524,0,0,0-.379.134c-.145.18-.418-.159.034.024a8.12,8.12,0,0,1,1.678.556c.127.1.3.492.042.018-.436-.805-.842-1.617-1.215-2.455-.439-.987-.842-1.975-1.289-3.164-.175-.464-.346-.928-.5-1.4-.1-.294-.347-1.5-.208-.424a2.44,2.44,0,0,0-4.1-1.7c-10,7.848-20.177,15.447-29.741,23.827q-4.983,4.365-9.8,8.91c-2.258,2.118,1.141,5.507,3.394,3.394,9.786-9.18,20.086-17.663,30.7-25.863q4.433-3.425,8.847-6.874l-4.1-1.7a25.042,25.042,0,0,0,2.185,6.325c.762,1.794,1.682,4.923,3.935,5.261,1.772.266,3.743-1.1,5.224-1.914,2.7-1.483,5.335-3.088,7.965-4.693,3.213-1.961,6.408-3.954,9.617-5.923,2.628-1.613.22-5.766-2.423-4.145Z" />

        <path class="c"
            d="M160.678,63.614c8.3,1.88,15.156,7.381,20.724,13.6a83.423,83.423,0,0,1,13.382,20.8,2.419,2.419,0,0,0,3.284.861,2.456,2.456,0,0,0,.861-3.283,87.187,87.187,0,0,0-14.418-22.083c-6.035-6.66-13.643-12.5-22.557-14.52-3.008-.682-4.292,3.945-1.276,4.628Z" />

        <path class="c"
            d="M107.948,168.682a74.773,74.773,0,0,1-.807,9.719,52.425,52.425,0,0,1-1.122,6.43,5.12,5.12,0,0,1-.784,1.685,5.808,5.808,0,0,1-2.3,1.645c-1.729.758-3.481,1.473-5.212,2.231a2.415,2.415,0,0,0-.861,3.283,2.46,2.46,0,0,0,3.284.861c1-.439,2.007-.882,3.012-1.317.215-.093.428-.187.644-.277-.187.078-.369.14-.075.037a15.86,15.86,0,0,0,2.1-.906,9.527,9.527,0,0,0,4.678-5.494,39.887,39.887,0,0,0,1.232-6.674,84.409,84.409,0,0,0,1.014-11.223c.061-3.09-4.739-3.09-4.8,0Z" />

        <path class="c"
            d="M165.62,168.682a84.241,84.241,0,0,0,1.013,11.223,36.449,36.449,0,0,0,1.315,6.905,9.62,9.62,0,0,0,5.065,5.5c.413.193.837.368,1.261.534.162.063.861.341.111.027.384.161.764.333,1.145.5,1.085.479,2.169.964,3.269,1.41a2.414,2.414,0,0,0,2.952-1.676,2.458,2.458,0,0,0-1.676-2.952c-.562-.229.519.226-.207-.086-.206-.088-.411-.178-.616-.268q-.714-.312-1.425-.628c-.772-.34-1.559-.648-2.334-.982a6.011,6.011,0,0,1-2.277-1.571,4.756,4.756,0,0,1-.867-1.784,51.27,51.27,0,0,1-1.087-6.2,74.792,74.792,0,0,1-.842-9.947c-.061-3.085-4.861-3.095-4.8,0Z" />

        <path class="c"
            d="M178.753,20.472C170.777,9.635,158.632,3.107,145.446,1.018c-13.412-2.125-28.13-.98-40.823,3.965A60.56,60.56,0,0,0,83.705,18.546c-2.188,2.186,1.2,5.581,3.394,3.394,9.478-9.469,22.021-14.823,35.236-16.416,12.543-1.513,26.034-.8,37.468,5.017A41.858,41.858,0,0,1,174.608,22.9a2.474,2.474,0,0,0,3.284.861,2.418,2.418,0,0,0,.861-3.284Z" />

        <path class="a"
            d="M325.719,270.7c5.375-3.858,6.827-11.759,12.475-15.207,2.919-1.782,6.477-2.053,9.875-2.447A104.972,104.972,0,0,0,398.763,232.8a12.7,12.7,0,0,0,3.961-4.129c.529-1.043,2.652-6.762.3-10.173,1.139-1.448,1.15-4.014.546-6.821-.446-2.072-2.451-4.825-5.217-4.639a4.442,4.442,0,0,0-1.966-3.676c-1.943-1.5-3.906-2.154-7.375-1.655-4.16.6-6.484,1.773-10.471,3.044-3.36,1.072-6.827,2.416-10.987,3.61-3.54,1.016-15.4,4.263-18.3,4.034q-4.582-.36-9.133-1.055l9.823-9.074c1.574-1.454,3.255-3.12,3.42-5.257.217-2.822-2.52-5.208-5.333-5.519s-5.563.934-7.975,2.414c-4.7,2.887-8.718,6.747-12.692,10.576-3.867,3.726-7.9,7.725-9.269,12.918-.829,3.146-.6,6.48-1.227,9.673s-4.871,7.822-7.715,9.4c-.638.354-6.685,3.672-6.685,3.672Z" />

        <path class="c"
            d="M343.993,211.014c2.731-2.523,5.515-5,8.195-7.578,2.709-2.6,4.641-6.108,2.819-9.805-1.709-3.468-5.742-4.961-9.4-4.464-3.9.531-7.38,2.861-10.448,5.195a105.221,105.221,0,0,0-9.18,8.106,52.177,52.177,0,0,0-7.452,8.327,22.252,22.252,0,0,0-3.5,10.954,21.716,21.716,0,0,1-.7,5.46,11.8,11.8,0,0,1-2.078,3.327,19.592,19.592,0,0,1-5.827,4.689l-5.178,2.843c-2.709,1.486-.29,5.632,2.422,4.144,2.969-1.629,6.208-3.067,8.854-5.2a22.113,22.113,0,0,0,5.578-6.567c1.706-3.2,1.427-6.82,1.888-10.314.892-6.759,6.341-11.381,11-15.817a70.676,70.676,0,0,1,8.4-7.118c2.386-1.649,5.609-3.9,8.7-3.274a3.618,3.618,0,0,1,2.832,2.356c.326,1.371-.959,2.622-1.844,3.5-2.731,2.7-5.649,5.239-8.472,7.846-2.274,2.1,1.127,5.489,3.394,3.394Z" />

        <path class="c"
            d="M337.616,213.362c2.9.477,5.823.873,8.75,1.17a21.057,21.057,0,0,0,5.027.107,86.948,86.948,0,0,0,9.987-2.127c3.324-.85,6.647-1.736,9.913-2.793,4.548-1.471,9.027-3.171,13.586-4.6,2.252-.708,4.9-1.483,7.283-1.121,1.422.217,3.821,1.336,3.786,3.04a2.426,2.426,0,0,0,2.4,2.4c3.232-.078,4.062,5.809,2.6,7.849a2.341,2.341,0,0,0,0,2.422c1.27,1.967.763,4.549.1,6.656q-.191.6-.425,1.191c.1-.246.2-.352.029-.1-.226.345-.4.712-.654,1.037a19.306,19.306,0,0,1-4,3.373,104.393,104.393,0,0,1-18.515,10.667,102.426,102.426,0,0,1-20.344,6.6c-3.425.733-6.875,1.262-10.353,1.66-3.578.409-7.33.888-10.367,3-2.809,1.949-4.717,4.767-6.463,7.651-1.532,2.531-3.018,5.391-5.451,7.19a2.471,2.471,0,0,0-.861,3.283,2.416,2.416,0,0,0,3.283.861,24.229,24.229,0,0,0,6.109-7.15c1.471-2.4,2.813-4.965,4.886-6.918,2.507-2.363,6.01-2.789,9.292-3.161a115.45,115.45,0,0,0,11.411-1.829,106.725,106.725,0,0,0,40.831-18.461c2.9-2.148,5.24-4.334,6.292-7.859.971-3.253,1.259-7.138-.66-10.11v2.422c1.839-2.563,1.555-6.8.494-9.609-1.146-3.038-3.847-5.543-7.237-5.462l2.4,2.4c.107-5.178-5.744-8.1-10.259-7.878-5.064.255-9.918,2.351-14.663,3.963a176.541,176.541,0,0,1-22.981,6.443c-.424.083-.849.162-1.276.233-.167.029-1.242.175-.7.113a10.721,10.721,0,0,1-2.1.045c-3.307-.266-6.6-.682-9.872-1.219a2.473,2.473,0,0,0-2.952,1.676,2.419,2.419,0,0,0,1.676,2.952Z" />

        <path class="c"
            d="M358.266,225.053c8.169-2.429,16.084-5.532,24.083-8.453a2.463,2.463,0,0,0,1.676-2.952,2.419,2.419,0,0,0-2.952-1.676c-8,2.921-15.914,6.024-24.083,8.453-2.954.878-1.7,5.512,1.276,4.628Z" />

        <path class="c"
            d="M365.969,234.076a237.617,237.617,0,0,0,26.665-9.99,2.419,2.419,0,0,0,.861-3.284,2.454,2.454,0,0,0-3.283-.861c-8.261,3.845-16.871,6.678-25.519,9.507-2.923.956-1.671,5.592,1.276,4.628Z" />

        <path class="c"
            d="M334.581,234.8c.255-.05.511-.093.767-.137.277-.04.257-.038-.059.008.1-.012.194-.022.291-.031.484-.048.971-.074,1.458-.079.454,0,.909.01,1.362.042.2.014.388.037.582.052.278.033.259.029-.058-.014.129.019.257.038.385.06a16.839,16.839,0,0,1,2.644.659c.246.084.487.179.731.267.525.19-.317-.158.146.059s.935.448,1.39.7a2.4,2.4,0,0,0,2.422-4.145,19.489,19.489,0,0,0-13.337-2.073,2.415,2.415,0,0,0-1.676,2.953,2.462,2.462,0,0,0,2.952,1.676Z" />

        <path class="c"
            d="M353.241,220.094l9.379,18.2a2.4,2.4,0,1,0,4.144-2.423l-9.378-18.2a2.4,2.4,0,1,0-4.145,2.423Z" />

        <path class="d"
            d="M115.839,181.254c5.951,4.951,12.884,10.781,14.024,12.178.643,2.164,1.753,5.023,3.62,10.889,1.507,3.573,4.211,10.228,5.66,13.349,2.082-4.365,4.795-10.811,6.949-15.995,1.041-3.169,1.878-6.718,2.332-8.243,1.868-2.289,19.285-16.477,22.458-19.2.284-.244.638-.5,1-.4.328.1.492.455.616.775,1.776,4.586,7.1,14.445,7.475,16.439a250.187,250.187,0,0,1,44.463,23.126c7.513,4.922,14.958,10.458,19.606,18.144,2.2,3.643,3.3,9.037,4.786,13.026,2.759,7.384,13.532,38.823,13.064,31.012,13.59-13.763,25.3-25.052,38.848-39.031a1.637,1.637,0,0,1,.92-.61c.55-.06.96.46,1.27.91a111.886,111.886,0,0,0,29.76,29.72c-19.67,22.26-38.08,46.98-61.68,65.04-5.03,3.85-10.65,7.77-16.98,7.64-8.05-.17-14.39-6.75-19.16-13.23-7.89-10.741-12.451-17.541-16.661-29.013q-.43,6.3-.548,12.626c-.311,16.606-.017,28.018-.017,49.6H2.367C8.561,327.629,17.6,274.838,29.136,243.963a68.52,68.52,0,0,1,5.2-11.647c4.648-7.686,12.092-13.222,19.605-18.144a250.665,250.665,0,0,1,44.371-23.1c.32-1.9,5.7-11.855,7.482-16.469a2.781,2.781,0,0,1,.175-.381.785.785,0,0,1,.442-.394c.358-.106.713.154,1,.4C108.641,175.292,112.04,178.094,115.839,181.254Z" />

        <path class="c"
            d="M218.525,274.022a272.427,272.427,0,0,0-3.306,38.652c-.148,9.312-.1,18.625-.046,27.937q.057,9.7.068,19.391c0,3.088,4.8,3.093,4.8,0,0-10.508-.106-21.015-.124-31.522-.018-10.531,0-21.081.75-31.589q.775-10.845,2.486-21.593a2.474,2.474,0,0,0-1.676-2.952,2.419,2.419,0,0,0-2.952,1.676Z" />

        <path class="c"
            d="M97.856,188.688a255.092,255.092,0,0,0-42.61,21.783c-6.182,3.945-12.4,8.118-17.463,13.47a41.327,41.327,0,0,0-6.533,8.948,87.336,87.336,0,0,0-4.534,10.721,313.393,313.393,0,0,0-10.281,35.075c-3.222,13.237-6.007,26.579-8.64,39.944C5.384,330.865,3.128,343.13.81,355.384q-.376,1.989-.757,3.98a2.464,2.464,0,0,0,1.676,2.952,2.423,2.423,0,0,0,2.953-1.676c2.243-11.731,4.39-23.48,6.661-35.2,2.554-13.182,5.232-26.343,8.279-39.42,2.806-12.042,5.873-24.062,9.831-35.783,2.131-6.312,4.273-12.912,8.073-18.441,3.921-5.7,9.532-10.08,15.2-13.933a244.22,244.22,0,0,1,41.007-22.315c1.789-.767,3.59-1.5,5.4-2.227a2.474,2.474,0,0,0,1.677-2.952,2.417,2.417,0,0,0-2.953-1.676Z" />

        <path class="c"
            d="M179.239,193.318A246.128,246.128,0,0,1,205.6,205.707a198.367,198.367,0,0,1,24.124,15.05,54.568,54.568,0,0,1,9.38,8.732,30.358,30.358,0,0,1,5.589,10.838c1.794,5.784,3.9,11.46,5.964,17.154,2.343,6.472,4.559,13.115,7.576,19.314a2.423,2.423,0,0,0,3.284.861,2.452,2.452,0,0,0,.861-3.284c-1.168-2.4-1.921-4.378-2.945-7.02-1.239-3.195-2.425-6.411-3.6-9.631-2.062-5.667-4.268-11.327-6.032-17.095-1.318-4.312-2.732-8.423-5.414-12.1a51.881,51.881,0,0,0-9.453-9.752c-7.377-5.949-15.636-10.906-23.884-15.539a256.443,256.443,0,0,0-30.54-14.547,2.417,2.417,0,0,0-2.952,1.676,2.46,2.46,0,0,0,1.676,2.953Z" />

        <path class="c"
            d="M256.824,284.94c11.749-12.068,23.8-23.836,35.664-35.787q2.541-2.559,5.068-5.133,1.214-1.234,2.422-2.473.652-.671,1.305-1.341l.492-.506.494-.51q.447-.372-.3-.048l-1.211-.328c.457.221.985,1.314,1.3,1.76q.732,1.036,1.489,2.055,1.695,2.286,3.493,4.492,3.474,4.263,7.359,8.17a116.319,116.319,0,0,0,17.075,14.125l-.486-3.77c-14.64,16.583-28.262,34.112-44.074,49.629-3.923,3.849-7.976,7.567-12.2,11.087-4.089,3.41-8.331,6.958-13.113,9.357-4.338,2.177-9.126,2.6-13.52.34-4.237-2.174-7.594-5.814-10.453-9.551-6.936-9.068-13.141-18.611-17.11-29.363a2.466,2.466,0,0,0-2.953-1.676,2.42,2.42,0,0,0-1.676,2.952,93.746,93.746,0,0,0,6.631,14.391,148.407,148.407,0,0,0,8.764,13.132c6.054,8.321,14.057,17.88,25.553,16.282,5.687-.79,10.574-4.114,15.041-7.514q6.964-5.3,13.393-11.249a317.8,317.8,0,0,0,23.8-24.929c8.516-9.763,16.735-19.782,25.309-29.494a2.442,2.442,0,0,0-.485-3.769A109.59,109.59,0,0,1,317.8,251.9q-3.729-3.752-7.092-7.842-1.551-1.889-3.01-3.848c-1.1-1.484-2.051-3.166-3.268-4.554a3.455,3.455,0,0,0-5.109-.3c-1.492,1.3-2.807,2.875-4.19,4.288q-3.936,4.018-7.907,8-7.707,7.736-15.467,15.415-9.222,9.183-18.323,18.488c-2.156,2.215,1.235,5.613,3.394,3.394Z" />

        <path class="c"
            d="M56.291,275.3a265.242,265.242,0,0,1,3.141,37.748c.142,9.251.092,18.5.038,27.755q-.055,9.6-.067,19.2c0,3.088,4.8,3.093,4.8,0,0-10.622.109-21.244.125-31.866.015-10.662-.013-21.343-.8-31.981-.551-7.41-1.434-14.795-2.6-22.133a2.418,2.418,0,0,0-2.952-1.676,2.458,2.458,0,0,0-1.677,2.952Z" />

        <path class="c"
            d="M141.216,216.459c-.981-2.124-1.88-4.286-2.781-6.444-.968-2.319-2.093-4.637-2.861-7.029-.812-2.529-1.673-5.041-2.533-7.554-.5-1.453-.8-3.019-1.893-4.146-2.084-2.152-4.476-4.046-6.756-5.981q-4.719-4-9.493-7.939-1.92-1.593-3.839-3.187c-1.072-.893-2.306-2.287-3.659-2.66-2.072-.57-3.323.968-4,2.653-.22.543-.076.207-.321.77q-.333.765-.684,1.523c-.969,2.107-2,4.188-3.009,6.275-.873,1.794-1.757,3.586-2.543,5.421-.536,1.252-1.2,2.577-.8,3.967a17.889,17.889,0,0,0,1.715,3.47c1.031,1.855,2.117,3.679,3.225,5.489a114.734,114.734,0,0,0,9.424,13.839,3.712,3.712,0,0,0,4.55,1c1.6-.841,2.274-3,3.057-4.525q2.432-4.741,4.922-9.453c1.446-2.728-2.7-5.156-4.144-2.423q-2.014,3.8-3.984,7.625-.862,1.677-1.721,3.356l-.512,1c-.576,1.126-.441.232,1.028.073.555-.06.383.382.2-.043a2.975,2.975,0,0,0-.358-.462c-2.719-3.559-5.169-7.333-7.533-11.134-1.775-2.856-3.58-5.741-5.073-8.758-.085-.171-.156-.355-.25-.522-.162-.288.159.61.053.1-.059-.285.058.6.057.507,0-.281-.269.592-.047.334a2.4,2.4,0,0,0,.184-.6c.1-.273.207-.541.317-.809-.2.481.178-.392.238-.526.388-.861.793-1.715,1.2-2.566.983-2.05,1.992-4.087,2.972-6.139.472-.989.94-1.981,1.387-2.982a19.643,19.643,0,0,1,1.253-2.765l-.861.861.278-.173-1.211.328.355,0-1.212-.328a1.494,1.494,0,0,1,.614.41c.234.2.47.4.7.593q.978.818,1.96,1.632,2.591,2.151,5.182,4.3c3.67,3.052,7.347,6.1,10.932,9.253a29.159,29.159,0,0,1,3.222,3.033l-.617-1.059a189.4,189.4,0,0,0,9.522,24.811,2.419,2.419,0,0,0,3.284.861,2.456,2.456,0,0,0,.861-3.283Z" />

        <path class="c"
            d="M141.216,218.881c1.983-4.174,3.782-8.436,5.573-12.7a57.744,57.744,0,0,0,2.387-6.387c.548-1.9,1.008-3.828,1.562-5.728l-.617,1.059a24.837,24.837,0,0,1,2.672-2.547c1.617-1.437,3.264-2.84,4.915-4.238,3.694-3.128,7.424-6.214,11.15-9.306q1.122-.932,2.242-1.865.438-.366.875-.733a2.756,2.756,0,0,1,.76-.534l-1.211.328.355,0-1.212-.328.279.173-.861-.861a39.752,39.752,0,0,1,2.3,5.039c.866,1.832,1.761,3.651,2.645,5.474q.645,1.326,1.275,2.66.249.528.491,1.058l.243.541c.047.1.3.707.094.206.177.426.291.887.476,1.305.1.226-.038.557-.022-.295,0,.23-.057.22.072-.5-.079.441-.007.028.06-.1a154.648,154.648,0,0,1-11.935,19.2c-.31.424-.623.847-.942,1.265-.048.063-.218.259-.268.347q-.135.173-.271.343.835-.582,1.723.361c.1-.342-.832-1.627-1.027-2.008q-.528-1.03-1.057-2.06-2.2-4.279-4.449-8.532c-1.447-2.73-5.592-.308-4.145,2.423q2.2,4.161,4.356,8.349c1.251,2.434,2.463,6.663,5.99,5.95,2.294-.464,3.733-3.3,5-5.081,1.443-2.025,2.823-4.095,4.167-6.186,2.214-3.445,4.389-6.943,6.309-10.562a7.4,7.4,0,0,0,1.214-3.178c.007-1.405-.839-2.867-1.4-4.1-1.742-3.853-3.722-7.594-5.456-11.452-.146-.326-.455-1.032-.5-1.15-.064-.154-.363-.972-.537-1.3a3.152,3.152,0,0,0-4.826-1.078c-.961.677-1.835,1.515-2.737,2.266-5.685,4.73-11.431,9.4-16.986,14.279-.978.86-1.985,1.713-2.883,2.659a5.214,5.214,0,0,0-1.226,2.4c-.392,1.448-.763,2.9-1.173,4.345a79.386,79.386,0,0,1-3.63,9.455c-1.276,2.986-2.572,5.965-3.965,8.9a2.466,2.466,0,0,0,.861,3.283,2.421,2.421,0,0,0,3.284-.861Z" />

        <path class="c"
            d="M136.743,217.67q0,31.721.223,63.441.163,29.432.354,58.862c.037,6.676.081,13.352.081,20.029,0,3.088,4.8,3.093,4.8,0,0-14.507-.133-29.014-.223-43.52q-.2-32.22-.353-64.441-.07-17.185-.082-34.371c0-3.089-4.8-3.094-4.8,0Z" />

        <path class="c"
            d="M128.774,144.227a22.9,22.9,0,0,0,11.03,2.543c3.9-.025,7.9-.768,11.025-3.206a2.414,2.414,0,0,0,0-3.395,2.462,2.462,0,0,0-3.394,0c.694-.54.039-.046-.139.068-.226.145-.46.28-.7.405-.141.074-.923.42-.384.2q-.476.192-.964.35a17.6,17.6,0,0,1-5.808.776,18.357,18.357,0,0,1-5.545-.747c-.353-.105-.7-.231-1.045-.351-.114-.039-.224-.089-.337-.131.589.218.075.033-.037-.019q-.648-.3-1.28-.639a2.452,2.452,0,0,0-3.284.861,2.426,2.426,0,0,0,.861,3.283Z" />

        <path class="c"
            d="M138.828,117.926a52.874,52.874,0,0,1,1.248,5.71l-.085-.638a3.463,3.463,0,0,1,.021.788l.086-.638a1.978,1.978,0,0,1-.087.355l.242-.574a1.481,1.481,0,0,1-.125.228l.375-.486a1.156,1.156,0,0,1-.186.184l.485-.375a3.482,3.482,0,0,1-.452.239l.573-.242a3.316,3.316,0,0,1-.762.223l.638-.086a3,3,0,0,1-.715,0l.638.086c-.27-.038-.535-.1-.805-.14a2.655,2.655,0,0,0-1.849.242,2.4,2.4,0,0,0-.861,3.284,2.3,2.3,0,0,0,1.434,1.1c.567.076,1.118.222,1.7.247a5.321,5.321,0,0,0,2.437-.571,3.4,3.4,0,0,0,1.92-2.257,5.857,5.857,0,0,0-.027-2.49c-.311-1.839-.736-3.663-1.209-5.467a2.4,2.4,0,0,0-4.629,1.276Z" />

        <path class="c"
            d="M108.129,101.9c-.954,3.1-.332,10.226,5.538,10.833,7.759-.047,8.172-8.664,5.56-12.716C117.089,96.7,110.8,95.316,108.129,101.9Z" />

        <path class="c"
            d="M170.261,101.9c.953,3.1.332,10.226-5.538,10.833-7.759-.047-8.172-8.665-5.56-12.717C161.3,96.7,167.589,95.316,170.261,101.9Z" />

    </g>

</svg>