
<!-- Uploaded to: SVG Repo, www.svgrepo.com, Transformed by: SVG Repo Mixer Tools -->
<svg version="1.1" id="designs" xmlns="http://www.w3.org/2000/svg"
    xmlns:xlink="http://www.w3.org/1999/xlink" width="120px" height="120px" viewBox="0 0 32 32"
    xml:space="preserve" fill="#000000">

<g id="SVGRepo_bgCarrier" stroke-width="0"/>

<g id="SVGRepo_tracerCarrier" stroke-linecap="round" stroke-linejoin="round"/>

<g id="SVGRepo_iconCarrier"> <style type="text/css"> .sketchy_een{fill:#111918;} </style> <path class="sketchy_een" d="M17.855,3.83c-0.012-0.106-0.043-0.21-0.098-0.308c-0.111-0.199-0.266-0.39-0.407-0.57 c-0.096-0.118-0.195-0.248-0.312-0.348c-0.166-0.139-0.354-0.264-0.571-0.308c-0.153-0.029-0.304-0.04-0.459-0.046 c-0.047-0.002-0.093-0.003-0.139-0.003c-0.086,0-0.172,0.003-0.258,0.007c-0.094,0.002-0.187,0.006-0.281,0.004 c-0.319-0.002-0.638,0.023-0.957,0.036c-0.342,0.013-0.686,0.031-1.03,0.04c-0.371,0.01-0.742,0.023-1.112,0.033 c-0.348,0.008-0.696,0.04-1.043,0.05c-0.606,0.017-1.214,0.013-1.819,0.017c-0.625,0.004-1.25,0.052-1.875,0.092 C7.197,2.545,6.9,2.557,6.604,2.578C6.218,2.605,5.8,2.633,5.461,2.842c-0.22,0.134-0.382,0.319-0.516,0.537 C4.756,3.684,4.722,4.042,4.752,4.391C4.754,4.403,4.758,4.413,4.76,4.425C4.744,4.486,4.721,4.546,4.722,4.612 c0.008,0.791,0.08,1.579,0.122,2.368c0.038,0.736,0.042,1.472,0.071,2.205c0.057,1.512-0.084,3.05,0.323,4.526 c0.153,0.558,0.346,1.11,0.625,1.622c0.243,0.445,0.577,0.789,1.001,1.063c0.392,0.252,0.816,0.342,1.275,0.384 c0.206,0.017,0.415,0.036,0.623,0.05c0.055,0.003,0.112,0.002,0.168,0.004c-0.042,0.75-0.074,1.5-0.097,2.253 c-0.025,0.828-0.082,1.653-0.097,2.482c-0.025,1.542-0.073,3.092-0.021,4.636c0.015,0.466,0.054,0.931,0.136,1.391 c0.032,0.174,0.078,0.34,0.143,0.506c0.086,0.224,0.18,0.453,0.302,0.659c0.214,0.365,0.506,0.692,0.868,0.914 c0.344,0.21,0.768,0.289,1.162,0.317c0.336,0.023,0.686-0.008,1.011-0.097c0.117-0.031,0.22-0.075,0.331-0.124 c0.157-0.069,0.289-0.189,0.415-0.304c0.166-0.155,0.306-0.365,0.415-0.566c0.193-0.357,0.285-0.784,0.363-1.177 c0.08-0.403,0.132-0.822,0.151-1.233c0.017-0.378,0.031-0.757,0.032-1.137c0.002-0.376-0.027-0.755-0.046-1.131 c-0.036-0.764-0.096-1.527-0.141-2.291c-0.048-0.784-0.111-1.565-0.17-2.349c-0.025-0.336-0.038-0.675-0.071-1.011 c-0.032-0.355-0.076-0.709-0.113-1.064c-0.015-0.14-0.036-0.279-0.055-0.418c0.29-0.01,0.579-0.017,0.868-0.053 c0.269-0.032,0.537-0.054,0.793-0.145c0.254-0.088,0.512-0.172,0.742-0.317c0.38-0.239,0.738-0.527,1.07-0.827 c0.401-0.363,0.625-0.852,0.81-1.351c0.227-0.621,0.333-1.303,0.333-1.963c0.002-0.726,0-1.456-0.015-2.182 c-0.015-0.665,0.011-1.332,0.029-1.997c0.019-0.757-0.004-1.514,0-2.27c0.004-0.518,0.067-1.034,0.071-1.554 C18.149,4.187,18.03,3.976,17.855,3.83z M16.539,12.156c-0.002,0.267,0.007,0.536-0.02,0.803c-0.052,0.345-0.132,0.698-0.26,1.022 c-0.066,0.149-0.135,0.302-0.222,0.439c-0.121,0.137-0.26,0.257-0.402,0.371c-0.198,0.142-0.413,0.271-0.633,0.378 c-0.192,0.069-0.398,0.123-0.597,0.157c-0.271,0.033-0.54,0.065-0.81,0.1c0.023-0.003,0.047-0.007,0.07-0.01 c-0.203,0.027-0.394,0.019-0.596,0.004c-0.285-0.024-0.529,0.147-0.683,0.377c-0.003,0.001-0.005,0-0.008,0.001 c-0.004,0-0.008,0.002-0.013,0.004c-0.327,0.09-0.562,0.396-0.562,0.738c0,0.103,0.022,0.203,0.061,0.294 c0.06,0.534,0.095,1.071,0.149,1.605c0.034,0.338,0.042,0.678,0.063,1.017c0.025,0.39,0.067,0.78,0.092,1.17 c0.053,0.78,0.103,1.56,0.172,2.337c0.067,0.755,0.13,1.51,0.161,2.265c0.023,0.583,0.011,1.179-0.054,1.757 c-0.057,0.357-0.133,0.705-0.255,1.045c-0.036,0.074-0.077,0.145-0.122,0.214c-0.035,0.04-0.071,0.079-0.11,0.116 c-0.071,0.021-0.143,0.037-0.215,0.05c-0.161,0.013-0.321,0.012-0.482-0.001c-0.085-0.016-0.168-0.038-0.249-0.065 c-0.035-0.018-0.069-0.037-0.103-0.058c-0.069-0.063-0.133-0.13-0.193-0.201c-0.09-0.132-0.166-0.27-0.233-0.415 c-0.043-0.108-0.082-0.218-0.108-0.331c-0.023-0.098-0.04-0.198-0.055-0.299c-0.09-0.725-0.058-1.463-0.054-2.191 c0.004-0.774,0.015-1.548,0.029-2.322c0.029-1.651,0.078-3.302,0.212-4.95c0.029-0.367,0.059-0.732,0.086-1.099 c0.021-0.284-0.152-0.526-0.384-0.676c-0.004-0.018,0.001-0.036-0.004-0.054c-0.057-0.208-0.197-0.39-0.384-0.499 c-0.183-0.107-0.373-0.127-0.572-0.097c-0.189,0.009-0.386-0.016-0.573-0.035c-0.191-0.02-0.382-0.031-0.573-0.05 c-0.101-0.017-0.202-0.039-0.299-0.07c-0.093-0.05-0.184-0.108-0.272-0.169c-0.077-0.069-0.148-0.145-0.216-0.224 c-0.146-0.208-0.275-0.432-0.383-0.662c-0.195-0.503-0.322-1.039-0.405-1.572c-0.063-0.579-0.048-1.166-0.048-1.746 C6.48,9.965,6.461,9.308,6.445,8.648c-0.015-0.65-0.019-1.3-0.078-1.947C6.302,6.005,6.302,5.31,6.308,4.612 c0-0.02-0.01-0.037-0.012-0.057C6.308,4.5,6.332,4.445,6.327,4.391C6.319,4.31,6.309,4.228,6.306,4.146 C6.423,4.113,6.544,4.09,6.664,4.071c0.312-0.035,0.628-0.055,0.942-0.082c0.012,0.641,0.05,1.28,0.099,1.92 C7.726,6.204,7.732,6.496,7.753,6.79c0.023,0.304,0.054,0.606,0.071,0.912C7.856,8.27,7.86,8.841,7.856,9.41 c-0.003,0.551-0.004,1.1-0.023,1.651c-0.018,0.038-0.034,0.078-0.046,0.12C7.76,11.281,7.76,11.379,7.758,11.48 c-0.004,0.413,0.35,0.757,0.759,0.757c0.407,0,0.764-0.344,0.757-0.757c0-0.032,0-0.065,0-0.097 c-0.001-0.108-0.024-0.205-0.063-0.293c-0.002-0.543,0.026-1.086,0.023-1.629C9.23,8.889,9.23,8.317,9.201,7.746 C9.173,7.142,9.119,6.542,9.104,5.938C9.088,5.254,9.08,4.571,9.083,3.887c0.402-0.015,0.805-0.026,1.206-0.025 c0.068,0,0.137-0.001,0.205-0.001c0.012,0.627,0.036,1.254,0.049,1.88c0.013,0.677,0.021,1.353,0.029,2.028 c0.004,0.336,0.006,0.671,0.006,1.005c0,0.329-0.021,0.657-0.011,0.986c0.008,0.333,0.032,0.665,0.05,0.998 c0.013,0.281,0.01,0.56,0.011,0.841c0,0.394,0.327,0.722,0.722,0.722c0.369,0,0.753-0.329,0.722-0.722 c-0.021-0.264-0.025-0.529-0.031-0.795c-0.006-0.329-0.027-0.657-0.031-0.986c-0.002-0.34,0.015-0.682,0.021-1.022 c0.008-0.342,0.006-0.684,0.006-1.026c0-0.669-0.023-1.34-0.013-2.01c0.01-0.644,0.038-1.288,0.051-1.932 c0.288-0.005,0.575-0.009,0.864-0.012c0.109-0.002,0.217-0.002,0.326-0.003c0.009,0.719,0.041,1.435,0.088,2.153 c0.048,0.728,0.109,1.458,0.141,2.188c0.031,0.692,0.036,1.386,0.078,2.077c0.031,0.512,0.004,1.036,0.086,1.544 c0.029,0.18,0.191,0.355,0.342,0.445c0.172,0.099,0.382,0.128,0.575,0.075c0.185-0.052,0.348-0.176,0.445-0.342 c0.088-0.151,0.105-0.298,0.09-0.457c0.003,0.022,0.006,0.045,0.009,0.067c-0.012-0.111-0.026-0.22-0.041-0.33 c-0.022-0.188-0.026-0.377-0.037-0.566c-0.015-0.315-0.042-0.629-0.057-0.942c-0.031-0.642-0.036-1.286-0.067-1.928 c-0.032-0.669-0.088-1.338-0.132-2.005c-0.042-0.667-0.012-1.337-0.004-2.004c0.06-0.001,0.12-0.005,0.181-0.004 c0.13,0.004,0.262,0.002,0.392,0c0.216-0.005,0.431-0.008,0.645,0.009c0.058,0.059,0.114,0.123,0.166,0.187 c0.08,0.111,0.159,0.228,0.221,0.347c0.043,0.08,0.105,0.142,0.172,0.198c0.004,0.733-0.028,1.469-0.032,2.202 c-0.004,0.761-0.008,1.523-0.011,2.286c-0.004,0.677,0.023,1.351,0.027,2.028C16.545,11.41,16.545,11.783,16.539,12.156z M27.245,14.23c-0.099-0.757-0.204-1.51-0.396-2.247c-0.18-0.701-0.369-1.397-0.516-2.108c-0.145-0.717-0.313-1.431-0.512-2.135 c-0.099-0.352-0.201-0.707-0.325-1.049c-0.128-0.35-0.266-0.694-0.407-1.036c-0.155-0.376-0.306-0.764-0.501-1.124 c-0.17-0.31-0.35-0.612-0.541-0.908c-0.197-0.304-0.399-0.612-0.64-0.879c-0.254-0.281-0.577-0.512-0.933-0.644 C22.284,2.029,22.088,2,21.893,2c-0.353,0-0.708,0.096-1.042,0.215c-0.199,0.073-0.361,0.176-0.47,0.363 C20.303,2.709,20.282,2.86,20.29,3.01c-0.004,0.029-0.018,0.055-0.019,0.085c-0.027,0.808-0.046,1.615-0.075,2.423 c-0.025,0.778-0.031,1.558-0.011,2.333c0.042,1.577,0.149,3.151,0.193,4.728c0.021,0.782,0.04,1.563,0.029,2.345 c-0.011,0.757-0.054,1.516-0.084,2.272c-0.029,0.763-0.032,1.523-0.032,2.286c-0.002,0.759-0.017,1.521,0.008,2.28 c0.025,0.749,0.048,1.496,0.082,2.244c0.017,0.352,0.021,0.703,0.038,1.057c0.015,0.296,0.025,0.594,0.021,0.891 c-0.004,0.541-0.002,1.084,0.061,1.621c0.063,0.535,0.157,1.072,0.409,1.556c0.149,0.287,0.434,0.501,0.717,0.648 c0.237,0.122,0.487,0.17,0.753,0.164c0.141-0.002,0.285-0.008,0.428-0.006c0.176,0.004,0.346-0.008,0.522-0.05 c0.155-0.036,0.304-0.115,0.447-0.183c0.206-0.099,0.38-0.25,0.552-0.399c0.153-0.134,0.319-0.247,0.453-0.401 c0.145-0.164,0.281-0.344,0.413-0.52c0.101-0.134,0.164-0.327,0.226-0.478c0.019-0.043,0.036-0.086,0.054-0.129 c0.113-0.259,0.233-0.508,0.288-0.789c0.055-0.283,0.145-0.558,0.193-0.843c0.055-0.338,0.094-0.692,0.115-1.036 c0.023-0.357,0.029-0.722,0.011-1.08c-0.021-0.44-0.115-0.875-0.201-1.303c-0.065-0.325-0.122-0.648-0.17-0.977 c-0.086-0.577-0.229-1.147-0.365-1.714c-0.048-0.203-0.059-0.413-0.126-0.612c-0.014-0.043-0.022-0.086-0.036-0.128 c0.028-0.033,0.068-0.06,0.084-0.097c0.007-0.016,0.014-0.031,0.022-0.046c0.083-0.088,0.175-0.167,0.268-0.246 c0.227-0.197,0.447-0.424,0.612-0.678c0.174-0.275,0.323-0.571,0.461-0.864c0.162-0.34,0.268-0.707,0.382-1.066 C27.226,15.636,27.339,14.924,27.245,14.23z M23.004,28.345c0.01-0.008,0.021-0.017,0.032-0.025l0,0 C23.025,28.328,23.014,28.336,23.004,28.345z M23.037,28.319L23.037,28.319c0.03-0.024,0.061-0.048,0.092-0.071 C23.098,28.271,23.067,28.295,23.037,28.319z M25.65,15.252c-0.042,0.24-0.108,0.474-0.172,0.708 c-0.07,0.251-0.142,0.502-0.235,0.744c-0.104,0.236-0.211,0.48-0.355,0.694c-0.148,0.176-0.305,0.352-0.477,0.498 c-0.18,0.155-0.375,0.302-0.47,0.527c-0.013,0.029-0.017,0.056-0.027,0.085c-0.217,0.141-0.379,0.37-0.361,0.637 c0.015,0.21,0.044,0.413,0.119,0.61c0.057,0.147,0.084,0.296,0.107,0.451c0.017,0.127,0.036,0.252,0.068,0.377 c0.034,0.138,0.076,0.275,0.107,0.415c0.061,0.268,0.109,0.537,0.155,0.806c0.118,0.666,0.282,1.325,0.397,1.992 c0.065,0.587,0.04,1.18-0.03,1.767c-0.037,0.25-0.095,0.495-0.157,0.74c-0.067,0.258-0.134,0.51-0.231,0.756 c-0.084,0.197-0.176,0.397-0.298,0.57c-0.081,0.102-0.167,0.203-0.262,0.291c-0.117,0.108-0.244,0.208-0.371,0.307 c-0.066,0.046-0.135,0.087-0.207,0.124c-0.026,0.009-0.053,0.016-0.079,0.023c-0.183,0.012-0.369,0.029-0.552,0.023 c-0.016-0.01-0.032-0.02-0.048-0.031c-0.008-0.007-0.016-0.015-0.024-0.022c-0.013-0.021-0.025-0.043-0.036-0.065 c-0.085-0.251-0.143-0.51-0.183-0.772c-0.056-0.502-0.059-1-0.07-1.505c-0.006-0.287-0.025-0.573-0.04-0.86 c-0.021-0.348-0.029-0.696-0.044-1.045c-0.031-0.736-0.078-1.472-0.096-2.209c-0.017-0.755-0.017-1.508-0.019-2.265 c-0.002-1.546,0.036-3.092,0.054-4.638c0.019-1.58-0.031-3.161-0.111-4.74c-0.057-1.177-0.119-2.358-0.111-3.537 c0.007-1.05,0.098-2.093,0.165-3.14c0.025-0.007,0.048-0.019,0.073-0.025c0.028,0,0.056,0,0.085,0.002 c0.033,0.007,0.066,0.016,0.098,0.026c0.059,0.033,0.117,0.068,0.174,0.106c0.127,0.115,0.239,0.243,0.347,0.376 c0.023,0.029,0.045,0.058,0.068,0.087c-0.009-0.012-0.019-0.024-0.028-0.036c0.245,0.315,0.464,0.646,0.669,0.988 c0.183,0.31,0.333,0.631,0.476,0.959c-0.005-0.012-0.01-0.024-0.015-0.036c0.005,0.013,0.011,0.026,0.016,0.039 c0.019,0.043,0.038,0.087,0.056,0.131c-0.018-0.041-0.036-0.082-0.053-0.122c0.115,0.278,0.227,0.557,0.336,0.839 c0.105,0.275,0.187,0.554,0.269,0.839c0.176,0.606,0.334,1.215,0.47,1.833c0.134,0.615,0.252,1.235,0.38,1.85 c0.059,0.287,0.145,0.566,0.21,0.85c0.069,0.308,0.122,0.618,0.168,0.931c0.044,0.341,0.089,0.682,0.109,1.026 C25.682,14.574,25.684,14.909,25.65,15.252z M23.72,6.062c-0.002-0.004-0.003-0.008-0.005-0.011c0,0.001,0.001,0.002,0.001,0.003 C23.717,6.056,23.719,6.059,23.72,6.062z"/> </g>

</svg>