
<!-- Uploaded to: SVG Repo, www.svgrepo.com, Transformed by: SVG Repo Mixer Tools -->
<svg width="100px" height="100px" viewBox="-18.44 0 327.257 327.257"
    xmlns="http://www.w3.org/2000/svg" fill="#000000">

    <g id="SVGRepo_bgCarrier" stroke-width="0" />

    <g id="SVGRepo_tracerCarrier" stroke-linecap="round" stroke-linejoin="round" />

    <g id="SVGRepo_iconCarrier">

        <defs>

            <style>
                .a{fill:#ffffff;}.b{fill:#7a7473;}.c{fill:#85807f;}.d{fill:#211715;}.e{fill:#3d8dcc;}.f{fill:#febe69;}</style>

        </defs>

        <path class="a"
            d="M4.349,111.286C8.721,97.306,20.288,85.93,37.071,82.667c24.717-4.8,45.656,10.9,50.056,33.536,4.476,23.028-6.358,42.416-27.945,49.179,2.187,11.31,6.646,34.49,7.716,39.993L55.35,207.62c-1.024-5.267-5.608-29.087-7.72-40-21.879,1.66-39.906-11.97-44.4-35.1A43.339,43.339,0,0,1,4.349,111.286Z" />

        <path class="a"
            d="M221.162,82.95a7.608,7.608,0,0,1,5.5-2.013A7.059,7.059,0,0,1,233,84.46c2.155,3.736,2.063,10.622.617,14.882-1.024,3.017-2.7,7.633-6.747,10.943a8.386,8.386,0,0,1-6.465,1.866l-.62-.1a49.491,49.491,0,0,1-2.225,6.038c-1.743,4.73-11.849,22.033-24.323,27.2q0,2.837,0,5.678s0,.51,0,1.217c-5.923,4.674-17.645,13.9-18.783,14.7H170.99c-1.116-.792-12.42-9.682-18.44-14.432,0-.842,0-1.38,0-1.38v-3.831s0-.777,0-1.725c-6.058-2.409-11.393-6.724-16.445-12.77a57.835,57.835,0,0,1-10.977-20.711,8.222,8.222,0,0,1-7-1.751c-4.045-3.31-5.723-7.926-6.748-10.943-1.446-4.26-1.537-11.146.618-14.882a7.059,7.059,0,0,1,6.341-3.523,7.606,7.606,0,0,1,5.5,2.013S117.969,34.541,172.5,34.541C225.739,34.541,221.162,82.95,221.162,82.95Z" />

        <path class="b"
            d="M171.621,266.842c-6.835-16.867-8.594-22.435-13.937-38.844-7.212-22.146-13.913-46.5-19.043-69.279-2.3,1.475-5.2,3.508-8.133,5.821l-2.249.884-7.526,2.955c-18.241,7.658-35.4,15.607-43.8,28.388l-28.618,57.05c.8,7.226,2.884,25.885,4.065,33.06a81.108,81.108,0,0,0,4.047,16.673c3.158,8.777,9.872,17.215,19.331,19.554,9.12,2.255,21.51.76,28.184-7.595.03,3.789.052,6.975.064,9.349H287.98c-3.577-48.792-4-58.456-6.626-83.065-1.671-15.752-6.85-35.922-12.837-45.025-8.4-12.781-25.562-20.73-43.8-28.388l-7.526-2.955-2.249-.884c-2.934-2.313-5.832-4.346-8.133-5.821-5.13,22.777-11.831,47.133-19.043,69.279-5.343,16.409-7.1,21.977-13.937,38.844" />

        <path class="c"
            d="M110.731,51.1c-.145,1.207-.254,2.3-.327,3.192-.888,10.857,1.59,19.511,4.936,27.243a8.785,8.785,0,0,1,3-.6,7.606,7.606,0,0,1,5.5,2.013l2.391,2.3.092-1.009a80.7,80.7,0,0,1,1.638-11.154c.858-4.069,1.943-8.285,5.626-11.663l7.976-5.6c2.117-.121,4.6-.442,6.279-.386,15.2.5,30.669-2.377,42.435-7.9l9.358,5.451A63.2,63.2,0,0,1,214.223,71.3c1.2,2.252,3.942,9.9,5.908,12.935a7.328,7.328,0,0,1,6.531-3.3,8.681,8.681,0,0,1,3.123.648c3.822-20.008,4.624-32.109-3.11-47.7a46.523,46.523,0,0,0-5.716-8.433,37.726,37.726,0,0,0-14.367-9.879l-10.536-4.584C185.51.7,166.444.7,153.316,5.558,141,10.112,134.35,16.54,126.366,22.546a25.865,25.865,0,0,1-9.612,4.85l-3,10.67C112.3,40.635,111.27,46.626,110.731,51.1Z" />

        <path class="d"
            d="M171.833,101.531a45,45,0,0,1,1.055,4.825l-.086-.638a2.912,2.912,0,0,1,.018.666l.086-.638a1.705,1.705,0,0,1-.073.3l.241-.573a1.152,1.152,0,0,1-.105.192l.375-.485a1.053,1.053,0,0,1-.158.155l.486-.375a3.239,3.239,0,0,1-.382.2l.573-.242a2.782,2.782,0,0,1-.644.188l.638-.086a2.542,2.542,0,0,1-.6,0l.638.086c-.228-.032-.452-.087-.68-.118a2.658,2.658,0,0,0-1.85.242,2.4,2.4,0,0,0-.861,3.284,2.3,2.3,0,0,0,1.435,1.1c.512.069,1.009.2,1.53.223a4.879,4.879,0,0,0,2.248-.533,3.228,3.228,0,0,0,1.793-2.13,5.352,5.352,0,0,0-.023-2.3c-.262-1.554-.622-3.095-1.021-4.62a2.4,2.4,0,0,0-4.629,1.276Z" />

        <path class="d"
            d="M146.147,87.886c-.806,2.619-.281,8.642,4.68,9.155,6.557-.039,6.906-7.322,4.7-10.746C153.719,83.491,148.405,82.325,146.147,87.886Z" />

        <path class="d"
            d="M198.856,87.886c.805,2.619.28,8.643-4.68,9.155-6.557-.039-6.906-7.322-4.7-10.747C191.284,83.491,196.6,82.325,198.856,87.886Z" />

        <path class="d"
            d="M125.537,81.253a10.661,10.661,0,0,0-11.783-1.626,10.346,10.346,0,0,0-5.2,7.162A27.164,27.164,0,0,0,112.6,107.65c2.926,4.363,7.167,7.562,12.637,6.815a2.415,2.415,0,0,0,1.676-2.952,2.465,2.465,0,0,0-2.952-1.677c-3.831.524-6.792-3.58-8.346-6.5a23.5,23.5,0,0,1-2.813-9.22,20.377,20.377,0,0,1,.236-5.375,10.8,10.8,0,0,1,1.363-3.6c-.155.206.331-.364.389-.426a1.878,1.878,0,0,1,.5-.443,5.216,5.216,0,0,1,2.085-.841,5.546,5.546,0,0,1,4.771,1.213c2.286,2.068,5.691-1.317,3.394-3.394Z" />

        <path class="d"
            d="M222.859,84.647a5.6,5.6,0,0,1,7.81.576c-.328-.414.125.22.177.305a7.005,7.005,0,0,1,.494.949,12.165,12.165,0,0,1,.628,2.263,20.335,20.335,0,0,1,.236,5.375,23.467,23.467,0,0,1-2.73,9.063c-1.551,2.968-4.537,7.19-8.428,6.658a2.484,2.484,0,0,0-2.953,1.677,2.418,2.418,0,0,0,1.677,2.952c8.837,1.207,13.97-7.5,16.261-14.779a25.48,25.48,0,0,0,.689-11.527,11.6,11.6,0,0,0-4.359-7.872,10.563,10.563,0,0,0-12.9.966c-2.3,2.076,1.108,5.463,3.394,3.394Z" />

        <path class="d"
            d="M218.391,107.836a46.945,46.945,0,0,1-1.812,6.286c-.229.646-.631,1.718-.8,2.121s-.362.8-.527,1.2c-.04.1-.268.681-.108.29.168-.411-.1.234-.14.312-.09.2-.183.4-.277.594-.246.514-.5,1.021-.772,1.525-.6,1.136-1.245,2.251-1.915,3.348A60.544,60.544,0,0,1,198.976,139a24.13,24.13,0,0,1-9.705,5.033c-3.008.694-1.735,5.324,1.276,4.629,7.353-1.7,13.476-7.062,18.282-12.637a66.5,66.5,0,0,0,10.285-15.487c.257-.565.483-1.142.723-1.713-.318.755.41-.935.43-.981q.3-.717.573-1.444a48.2,48.2,0,0,0,2.18-7.292,2.46,2.46,0,0,0-1.676-2.953,2.424,2.424,0,0,0-2.953,1.677Z" />

        <path class="d"
            d="M121.843,108.939A60.957,60.957,0,0,0,130.47,129.2c4.392,6.589,10.161,12.75,17.139,16.624a33.911,33.911,0,0,0,11.5,3.917,2.479,2.479,0,0,0,2.952-1.676,2.417,2.417,0,0,0-1.676-2.952c-14.448-2.133-25.253-14.658-30.733-27.5a58.046,58.046,0,0,1-3.177-9.95c-.682-3.012-5.311-1.737-4.629,1.276Z" />

        <path class="d"
            d="M205.954,17.884A36,36,0,0,1,224.217,34.35a50.511,50.511,0,0,1,5.988,23.512A91.736,91.736,0,0,1,228.9,72.877a2.476,2.476,0,0,0,1.676,2.952,2.418,2.418,0,0,0,2.952-1.676c1.463-9.3,2.246-18.725.161-28-1.985-8.826-6.171-17.75-12.678-24.152a42.093,42.093,0,0,0-13.78-8.751,2.416,2.416,0,0,0-2.953,1.676,2.461,2.461,0,0,0,1.677,2.953Z" />

        <path class="d"
            d="M197.753,9.288C189.276,1.136,176.6-.938,165.281.355a58.163,58.163,0,0,0-17.738,5.011,80.322,80.322,0,0,0-15.635,9.853c-2.459,1.9-4.864,3.877-7.372,5.714a27.371,27.371,0,0,1-8.42,4.148c-2.945.9-1.689,5.538,1.276,4.629a30.82,30.82,0,0,0,7.847-3.436c2.352-1.527,4.535-3.327,6.738-5.059a102.305,102.305,0,0,1,13.915-9.662c9.857-5.395,21.463-8.081,32.66-6.2,5.827.981,11.5,3.179,15.807,7.324,2.227,2.142,5.626-1.248,3.394-3.394Z" />

        <path class="d"
            d="M111.683,36.854c-1.552,2.841-2.139,6.231-2.664,9.386a83.238,83.238,0,0,0-1.156,10.382,57.838,57.838,0,0,0,4.611,24.247,2.478,2.478,0,0,0,2.952,1.676,2.414,2.414,0,0,0,1.676-2.952,54.58,54.58,0,0,1-4.455-22.512,71.7,71.7,0,0,1,1-9.564c.455-2.73,1.015-6.106,2.181-8.24,1.483-2.712-2.661-5.137-4.145-2.423Z" />

        <path class="d"
            d="M189.065,45.457a83.47,83.47,0,0,1-22.9,6.564A100.108,100.108,0,0,1,153.6,53.062c-2.088.046-4.171-.046-6.257-.036-1.932.01-3.859.272-5.785.392-3.069.19-3.09,4.992,0,4.8,1.982-.123,3.967-.4,5.955-.393,2.108.009,4.209.083,6.317.032a110.416,110.416,0,0,0,13.61-1.207A87.5,87.5,0,0,0,191.488,49.6a2.42,2.42,0,0,0,.861-3.284,2.456,2.456,0,0,0-3.284-.861Z" />

        <path class="d"
            d="M131.89,59.724c-3.446,3.243-5.111,7.527-6.1,12.061a102.341,102.341,0,0,0-1.865,12.453,2.419,2.419,0,0,0,2.4,2.4,2.45,2.45,0,0,0,2.4-2.4,90.466,90.466,0,0,1,1.622-10.846c.831-3.872,1.98-7.49,4.939-10.274,2.254-2.121-1.145-5.511-3.394-3.394Z" />

        <path class="d"
            d="M197.938,54.677a62.881,62.881,0,0,1,12.205,14.315c2.786,4.547,4.416,9.563,6.747,14.336a2.423,2.423,0,0,0,3.284.861,2.451,2.451,0,0,0,.861-3.284c-2.393-4.9-4.071-10.027-6.96-14.681a67.228,67.228,0,0,0-12.743-14.942c-2.31-2.034-5.718,1.349-3.394,3.4Z" />

        <path class="a"
            d="M173.826,266.842c6.835-16.867,8.594-22.435,13.937-38.844,6.622-20.333,12.812-42.528,17.751-63.654a7.249,7.249,0,0,0-1.631-5.974c-2.222-2.574-5.022-6.3-7.294-8.838-.965.781-20.641,16.295-22.132,17.353H170.99c-1.491-1.058-21.167-16.572-22.132-17.353-2.272,2.541-5.072,6.264-7.294,8.838a7.249,7.249,0,0,0-1.631,5.974c4.939,21.126,11.129,43.321,17.751,63.654,5.343,16.409,7.1,21.977,13.937,38.844Z" />

        <path class="e"
            d="M179.767,251.638c-1.578,4.269-3.412,8.963-5.941,15.2h-2.2c-6.292-15.528-8.283-21.48-12.728-35.129,2.155-18.482,5.006-40.46,5.006-41.108a15.349,15.349,0,0,0-.529-3.453q-.2-.774-.357-1.547c-.569-2.567-.673-3.881-1.335-6.6l-.04-.133c3.174-4.28,7.013-9.356,9.352-11.987h3.467c2.319,2.609,6.113,7.62,9.272,11.877-.179.5-.3.831-.3.831a33.725,33.725,0,0,0-1.623,5.277,21.989,21.989,0,0,0-1.282,6.114c-.018,1.087,2.982,21.928,5.763,41.534C183.777,240.237,182.037,245.5,179.767,251.638Z" />

        <path class="d"
            d="M106.4,324.858q-.094-17.668-.3-35.335-.226-23.051-.532-46.1c-.091-6.6-.187-13.2-.322-19.8-.063-3.084-4.863-3.095-4.8,0,.27,13.162.418,26.327.571,39.491q.262,22.467.455,44.934.072,8.4.125,16.807c.017,3.088,4.817,3.094,4.8,0Z" />

        <path class="d"
            d="M156.812,266.358c-12.276-21.28-24.41-42.657-35.73-64.464-.761-1.465-1.615-2.922-2.284-4.43-.282-.637-.284-.515.2-1.062.582-.656,1.2-1.281,1.813-1.91,2.5-2.582,5.112-5.059,7.734-7.519a2.421,2.421,0,0,0-.486-3.769l-4.864-2.777-2.326-1.328c-.423-.241-.848-.48-1.269-.724l-.423-.241q-.537-.333.08.071l.328,1.211c-.134.281-.152.322-.055.125.058-.12.119-.238.182-.354q.16-.3.335-.6c.269-.458.558-.9.862-1.34a26.621,26.621,0,0,1,1.918-2.4,60.917,60.917,0,0,1,5.526-5.419,97.147,97.147,0,0,1,11.5-8.639l-3.526-1.435q5.315,23.565,12.106,46.764c4,13.715,8.3,27.373,13.026,40.857,2.419,6.908,5.1,13.719,7.848,20.5a2.476,2.476,0,0,0,2.952,1.677,2.416,2.416,0,0,0,1.676-2.953c-4.752-11.734-8.973-23.6-12.892-35.632-4.964-15.248-9.551-30.6-13.634-46.114q-3.457-13.129-6.453-26.377a2.419,2.419,0,0,0-3.526-1.434A91.61,91.61,0,0,0,120.6,170.185a42.147,42.147,0,0,0-3.483,4.146,12.147,12.147,0,0,0-2.261,4.117c-.624,2.777,2.06,3.923,4.012,5.038l6.768,3.863-.486-3.77c-2.447,2.3-4.883,4.606-7.232,7-2.3,2.352-5.2,4.83-3.673,8.436,1.208,2.857,2.836,5.594,4.275,8.342q2.259,4.311,4.558,8.6c6.1,11.39,12.388,22.679,18.763,33.918q5.374,9.471,10.823,18.9c1.543,2.675,5.692.261,4.144-2.422Z" />

        <path class="d"
            d="M243.844,324.858q.095-17.668.3-35.335.227-23.051.532-46.1c.091-6.6.187-13.2.322-19.8.063-3.09-4.737-3.09-4.8,0-.27,13.162-.418,26.327-.571,39.491q-.262,22.467-.455,44.934-.072,8.4-.125,16.807c-.017,3.089,4.783,3.093,4.8,0Z" />

        <path class="d"
            d="M164.655,191.007c5.129,0,10.256-.108,15.384-.11a2.4,2.4,0,0,0,0-4.8c-5.128,0-10.255.108-15.384.11a2.4,2.4,0,0,0,0,4.8Z" />

        <path class="d"
            d="M159.364,179.643c.487,2.039.807,4.108,1.239,6.159a20.209,20.209,0,0,1,.891,4.9c-.065,1.447-.339,2.91-.516,4.345-.887,7.181-1.793,14.36-2.672,21.542q-.929,7.593-1.821,15.188a2.414,2.414,0,0,0,2.4,2.4,2.456,2.456,0,0,0,2.4-2.4q1.53-13.109,3.182-26.2c.609-4.89,1.5-9.833,1.816-14.753a19.06,19.06,0,0,0-.83-5.272c-.535-2.385-.893-4.8-1.46-7.18-.717-3-5.347-1.732-4.629,1.276Z" />

        <path class="d"
            d="M188.47,230.916q-1.8-12.712-3.609-25.426-.672-4.766-1.325-9.534l-.093-.686-.08-.6q-.091-.693-.181-1.388c-.08-.627-.178-1.258-.224-1.888a11.694,11.694,0,0,1,.586-3.948,45.634,45.634,0,0,1,1.962-6.638,2.473,2.473,0,0,0-.861-3.284,2.42,2.42,0,0,0-3.284.861,49.732,49.732,0,0,0-2,6.278,20.582,20.582,0,0,0-1.234,6.355,38.526,38.526,0,0,0,.478,3.988c.951,7.137,1.976,14.265,2.988,21.394q1.122,7.9,2.246,15.8a2.415,2.415,0,0,0,2.952,1.677,2.465,2.465,0,0,0,1.677-2.953Z" />

        <path class="d"
            d="M192.779,268.78c12.843-22.261,25.54-44.629,37.294-67.489.886-1.724,1.939-3.445,1.467-5.462-.4-1.725-1.835-2.985-3.013-4.213-2.655-2.77-5.437-5.413-8.234-8.037l-.486,3.77,6.768-3.863c1.952-1.115,4.636-2.261,4.012-5.038a12.173,12.173,0,0,0-2.261-4.117,42.147,42.147,0,0,0-3.483-4.146,91.61,91.61,0,0,0-16.826-13.538,2.419,2.419,0,0,0-3.526,1.434q-5.315,23.565-12.106,46.764c-4,13.715-8.3,27.373-13.025,40.857-2.42,6.908-5.1,13.719-7.848,20.5a2.416,2.416,0,0,0,1.676,2.953,2.458,2.458,0,0,0,2.952-1.677c4.752-11.734,8.973-23.6,12.892-35.632,4.965-15.248,9.552-30.605,13.635-46.114q3.456-13.13,6.453-26.377l-3.526,1.435a97.256,97.256,0,0,1,11.5,8.639,61.186,61.186,0,0,1,5.414,5.292,27.193,27.193,0,0,1,2.03,2.526c.277.4.543.8.792,1.22.141.236.277.475.406.718l.123.236q.231.474,0-.007l.328-1.211q.556-.363.2-.146-.27.165-.547.316c-.422.243-.846.483-1.269.724l-2.326,1.328-4.864,2.777a2.421,2.421,0,0,0-.486,3.769c2.331,2.186,4.65,4.385,6.9,6.66q.841.855,1.67,1.723c.374.394,1.11.9,1.306,1.4.256.652-.96,2.348-1.36,3.123q-4.183,8.109-8.519,16.138-8.805,16.345-18.015,32.467-5.088,8.958-10.241,17.878c-1.547,2.68,2.6,5.1,4.144,2.422Z" />

        <path class="d"
            d="M194.892,151.229c1.316,1.484,2.559,3.029,3.8,4.575,1.152,1.433,2.435,2.812,3.518,4.295a5.7,5.7,0,0,1,.937,2.056,3.892,3.892,0,0,1,.119.81c0,.159-.14,1.021.044.547a9.833,9.833,0,0,1-.838,1.441,105.809,105.809,0,0,1-8.853,12.562c-1.039,1.253-2.118,2.476-3.272,3.624-.5.494-1.009.975-1.542,1.431a7.637,7.637,0,0,1-1.255.94l3.283.861c-4.817-6.431-9.352-13.156-14.68-19.183l-.486,3.769c2.8-2,5.458-4.217,8.162-6.338q5.734-4.5,11.454-9.013c1-.791,2.009-1.575,3-2.377a2.417,2.417,0,0,0,0-3.394,2.458,2.458,0,0,0-3.4,0c-6.2,5-12.5,9.878-18.78,14.773l-1.153.9-.5.39c-.313.243.391-.3-.068.052-.379.291-.754.588-1.143.865a2.446,2.446,0,0,0-.485,3.77c5.058,5.722,9.357,12.107,13.93,18.212a2.447,2.447,0,0,0,3.283.861c5.166-3.378,9-8.955,12.478-13.934,1.449-2.074,2.852-4.184,4.167-6.345a13.83,13.83,0,0,0,.984-1.779,8.237,8.237,0,0,0-.41-6.351c-.931-2.15-2.708-3.858-4.164-5.665-1.557-1.933-3.093-3.887-4.741-5.746C196.233,145.519,192.848,148.924,194.892,151.229Z" />

        <path class="d"
            d="M147.16,147.835c-1.458,1.645-2.828,3.365-4.2,5.079-1.3,1.62-2.813,3.171-3.957,4.905a8.465,8.465,0,0,0-.517,8.978,110.579,110.579,0,0,0,9.754,13.872,33.448,33.448,0,0,0,7.239,6.986,2.458,2.458,0,0,0,3.283-.861c4.573-6.105,8.872-12.49,13.93-18.212a2.446,2.446,0,0,0-.485-3.77c-.306-.218-.6-.45-.9-.679l-.345-.266c-.3-.228.409.318-.025-.019-.332-.258-.665-.515-1-.774q-2.616-2.036-5.223-4.084-5.621-4.41-11.228-8.836c-.977-.772-1.96-1.537-2.928-2.319a2.474,2.474,0,0,0-3.4,0,2.419,2.419,0,0,0,0,3.394c6.273,5.061,12.652,10,19.01,14.952,1.2.931,2.376,1.894,3.609,2.776l-.486-3.769c-5.328,6.027-9.863,12.752-14.68,19.183l3.283-.861c-.212-.139-.421-.283-.627-.43s-.011,0,.027.029c-.126-.1-.25-.2-.372-.3-.5-.41-.971-.842-1.434-1.287-1.009-.97-1.955-2-2.868-3.064-1.865-2.167-3.58-4.455-5.225-6.792-1.406-2-2.764-4.034-4.053-6.11-.363-.585-.723-1.173-1.061-1.773a2.255,2.255,0,0,1-.132-.241c.109.266.032.048.031-.22a5.224,5.224,0,0,1,.361-1.99c.734-1.816,2.461-3.349,3.672-4.856,1.422-1.769,2.834-3.547,4.34-5.246C152.6,148.925,149.215,145.518,147.16,147.835Z" />

        <path class="d"
            d="M150.151,147.242v3.831a2.473,2.473,0,0,0,.7,1.7,2.4,2.4,0,0,0,3.394,0,2.5,2.5,0,0,0,.7-1.7v-3.831a2.477,2.477,0,0,0-.7-1.7,2.4,2.4,0,0,0-3.394,0,2.5,2.5,0,0,0-.7,1.7Z" />

        <path class="d"
            d="M190.839,147.009v3.957a2.473,2.473,0,0,0,.7,1.7,2.4,2.4,0,0,0,3.394,0,2.494,2.494,0,0,0,.7-1.7v-.22a2.475,2.475,0,0,0-.7-1.7,2.4,2.4,0,0,0-3.394,0,2.492,2.492,0,0,0-.7,1.7v.22a2.473,2.473,0,0,0,.7,1.7,2.4,2.4,0,0,0,3.394,0,2.494,2.494,0,0,0,.7-1.7v-3.957a2.48,2.48,0,0,0-.7-1.7,2.4,2.4,0,0,0-3.394,0,2.5,2.5,0,0,0-.7,1.7Z" />

        <path class="d"
            d="M290.38,324.857c-1.065-14.533-2.085-29.069-3.149-43.6-.651-8.891-1.339-17.779-2.18-26.654-1.206-12.707-2.629-25.321-5.972-37.68-1.826-6.751-4.012-13.666-7.508-19.762-3.532-6.16-8.906-11.052-14.661-15.1-11.35-7.982-24.551-13.243-37.4-18.289l-1.684-.662a2.419,2.419,0,0,0-2.953,1.677,2.456,2.456,0,0,0,1.677,2.952c11.349,4.457,22.774,9.05,33.224,15.4,5.915,3.59,11.711,7.905,15.8,13.574,3.739,5.191,5.9,11.424,7.738,17.494a157.2,157.2,0,0,1,5.056,22.879c.743,5.1,1.183,10.247,1.681,15.373.828,8.516,1.515,17.045,2.149,25.578.988,13.294,1.913,26.592,2.88,39.886q.252,3.471.507,6.94a2.458,2.458,0,0,0,2.4,2.4,2.42,2.42,0,0,0,2.4-2.4Z" />

        <path class="f"
            d="M213.659,194.3a5.255,5.255,0,0,0-5.36,5.326,5.169,5.169,0,0,0,5.36,5.427,5.115,5.115,0,0,0,5.36-5.427A5.251,5.251,0,0,0,213.659,194.3Z" />

        <path class="d"
            d="M213.659,191.9a7.784,7.784,0,0,0-7.421,5.431,7.946,7.946,0,0,0,2.547,8.483,8.239,8.239,0,0,0,8.935.6,7.892,7.892,0,0,0,3.559-8.211,7.709,7.709,0,0,0-7.62-6.306,2.4,2.4,0,0,0,0,4.8c.156,0,.311.014.467.018.537.013-.555-.13-.04-.008.237.057.473.1.7.18a1.333,1.333,0,0,0,.269.1l-.313-.132c.085.038.169.079.251.122.236.122.461.334.7.438-.477-.207-.271-.217-.067-.028.067.062.132.125.195.19.078.08.177.246.271.3-.332-.2-.255-.374-.09-.108.132.213.256.425.378.643.1.181.019.282-.074-.2.033.173.13.349.179.52.063.219.072.471.149.681-.189-.513-.034-.4-.032-.145,0,.119.011.239.011.358a4.308,4.308,0,0,0-.038.731l.05-.357c-.014.092-.03.184-.049.275-.031.157-.068.311-.112.465-.031.107-.064.214-.1.319l-.045.124q-.14.353.089-.211a5.423,5.423,0,0,0-.307.563c-.056.089-.125.172-.178.262-.153.263.415-.463.1-.141-.165.169-.4.341-.54.524.328-.414.317-.231.08-.074q-.107.071-.216.135c-.111.065-.227.121-.34.183-.4.221.454-.138.152-.06-.239.061-.468.16-.71.216-.09.021-.182.036-.272.057q-.386.063.215-.024c-.1.011-.193.019-.29.026a6.822,6.822,0,0,1-.743.008,2.542,2.542,0,0,0-.432-.035c.048-.007.605.115.221.022-.245-.059-.489-.108-.728-.188-.1-.035-.209-.09-.314-.115.632.151.253.106.039-.012s-.393-.269-.6-.384c.486.27.321.264.187.133-.092-.09-.189-.173-.278-.266-.073-.075-.138-.168-.216-.238-.226-.2.345.513.1.129-.142-.223-.271-.446-.4-.677-.237-.426.183.551.031.081-.028-.086-.061-.171-.088-.258a4.744,4.744,0,0,0-.193-.818c.024.041.051.616.031.205-.007-.149-.022-.3-.025-.447,0-.123,0-.245,0-.367q0-.106.012-.213c.025-.261.013-.188-.038.218.092-.252.107-.55.189-.809a2.728,2.728,0,0,0,.139-.388c-.035.247-.209.45-.014.079.123-.233.324-.45.433-.687-.228.494-.211.265-.03.069.092-.1.188-.2.287-.288.2-.187.413-.185-.067.027a3.416,3.416,0,0,0,.34-.233q.175-.111.36-.207c.083-.044.167-.084.252-.123l-.313.132a4,4,0,0,0,.831-.249l.145-.029q.39-.064-.191.021a2.359,2.359,0,0,0,.62-.032,2.4,2.4,0,1,0,0-4.8Z" />

        <path class="d"
            d="M69.212,204.737q-2.966-15.266-5.891-30.539-.862-4.47-1.727-8.941a2.423,2.423,0,0,0-2.952-1.677,2.451,2.451,0,0,0-1.676,2.953q3.256,16.838,6.5,33.679.559,2.9,1.122,5.8a2.424,2.424,0,0,0,2.952,1.677,2.45,2.45,0,0,0,1.676-2.953Z" />

        <path class="d"
            d="M57.664,206.982q-2.979-15.335-5.918-30.676-.855-4.429-1.71-8.859a2.425,2.425,0,0,0-2.953-1.676,2.45,2.45,0,0,0-1.676,2.952Q48.67,185.6,51.916,202.47q.56,2.893,1.12,5.788a2.422,2.422,0,0,0,2.952,1.676,2.449,2.449,0,0,0,1.676-2.952Z" />

        <path class="d"
            d="M36.433,80.353a45.616,45.616,0,0,0-25.1,13.94A44.665,44.665,0,0,0,.273,119.288c-2.018,18.177,7.278,37.875,23.858,46.22,16.611,8.36,38.559,5.126,52.478-7.078,13.866-12.158,17.122-32.781,10.938-49.684A45.191,45.191,0,0,0,70.929,87.074a44.173,44.173,0,0,0-26.817-7.636,52.455,52.455,0,0,0-7.679.915,2.422,2.422,0,0,0-1.676,2.952,2.451,2.451,0,0,0,2.952,1.677,40.791,40.791,0,0,1,25.53,3.138,39.622,39.622,0,0,1,17.355,16.77c7.65,14.171,7.143,33.7-3.455,46.164C66.418,163.663,47.122,168.467,31.526,163.4,15.5,158.193,5.45,142.176,4.839,125.684a40.272,40.272,0,0,1,6.442-23.5A39.315,39.315,0,0,1,31.018,86.8a47.961,47.961,0,0,1,6.691-1.816,2.4,2.4,0,1,0-1.276-4.629Z" />

        <path class="a"
            d="M62.871,255.476a43.946,43.946,0,0,0,5.6-.828c5.575-1.15,9.655-4.927,11.948-10.137,1.737-3.948,2.909-10.61,2.294-14.243a95.806,95.806,0,0,1-1.813-15.085c-.385-8.306-.035-8.433-1.843-13.872-1.957-5.889-7.894-5.342-12.642-4.986l-2.605,3.157c-.033-.007-.067-.012-.1-.017-6.144-.926-12.13,2.637-16.75,6.273-4.936,3.948-7.734,8.6-7.726,14.514.017,11.41,6.545,26.812,12.877,33.206C55.35,255.375,59.15,255.752,62.871,255.476Z" />

        <path class="d"
            d="M71.607,211.865a10.5,10.5,0,0,0,.329-9.033,9.49,9.49,0,0,0-6.857-5.552c-7.887-1.658-15.867,2.973-21.456,8.177a19.953,19.953,0,0,0-6.613,18.11,61.3,61.3,0,0,0,5.914,20.245,48.4,48.4,0,0,0,4.77,8.094,22,22,0,0,0,2.723,3.249,12.37,12.37,0,0,0,5.529,2.314,30.092,30.092,0,0,0,11.255-.144,20.276,20.276,0,0,0,9.372-3.871c5.446-4.258,7.69-11.035,8.494-17.667.6-4.948-.832-9.712-1.324-14.553-.378-3.716-.491-7.446-.643-11.176a29.674,29.674,0,0,0-.8-6.362c-.718-2.738-1.586-5.652-3.84-7.528a12.428,12.428,0,0,0-8.119-2.443c-1.31,0-2.618.1-3.924.2a2.459,2.459,0,0,0-2.4,2.4,2.419,2.419,0,0,0,2.4,2.4,23.849,23.849,0,0,1,6.593.033,4.926,4.926,0,0,1,3.938,3.807c.316.971.623,1.947.858,2.941.094.4.17.8.245,1.205.024.13.042.263.061.394-.09-.621.023.27.033.38.241,2.554.235,5.136.357,7.7A115.038,115.038,0,0,0,80.3,230.309a12.248,12.248,0,0,1,.183,2.49,29.6,29.6,0,0,1-2.94,12.148,14.859,14.859,0,0,1-5.309,5.707,19.867,19.867,0,0,1-8.039,2.3,19.389,19.389,0,0,1-9.266-.769c-2.152-.842-3.453-3.093-4.655-4.975a58.342,58.342,0,0,1-6.957-15.959c-1.42-5.173-2.791-11.488-.576-16.63a19.134,19.134,0,0,1,5.921-7.183,27.291,27.291,0,0,1,9.782-5.285c2.591-.669,6.429-.866,8.271,1.245a5.7,5.7,0,0,1,.749,6.048c-1.556,2.675,2.591,5.094,4.145,2.422Z" />

        <path class="d"
            d="M55.674,215.028c2.08-.451,4.164-.887,6.267-1.218,1-.157,1.723-.28,2.787-.353a4.975,4.975,0,0,1,2.318.281,2.382,2.382,0,0,1,.832.405c.178.109-.042-.079.216.158a6.91,6.91,0,0,1,.523.532c-.2-.226.087.118.145.206.126.193.238.392.35.593a4.563,4.563,0,0,1,.435,1.2c.024.105.089.6.06.272a7.364,7.364,0,0,1,.013.743c0,.184-.053.319,0,.063-.048.224-.108.433-.174.652.108-.358-.005.011-.085.177s-.151.323-.238.478-.412.524-.016.058c.233-.275.224-.151-.1.012a2.4,2.4,0,1,0,2.423,4.144c2.128-1.082,3.146-4.075,2.973-6.327A9.315,9.315,0,0,0,70.3,210c-2.281-1.465-4.98-1.451-7.56-1.112-2.807.369-5.577.914-8.342,1.513a2.4,2.4,0,1,0,1.276,4.629Z" />

        <path class="d"
            d="M57.194,225.012q3.3-.6,6.616-1.158c1.019-.172,2.038-.349,3.059-.505a3.725,3.725,0,0,1,1.884.178c-.2-.078.34.167.392.2.036.019.7.453.312.142a2.151,2.151,0,0,1,.648.752c.139.226.245.467.375.7.228.4-.16-.522-.033-.087.046.154.108.3.151.458s.067.64.051.111c.007.222.022.44.013.663.015-.349-.018.107-.051.243a4.183,4.183,0,0,1-.117.411c.074-.136.078-.142.009-.019-.091.2-.275.314-.051.093-.03.029-.538.488-.162.195a5.31,5.31,0,0,1-.543.359c-.177.107-.36.2-.545.3-.132.066-.681.29-.088.052a2.476,2.476,0,0,0-1.677,2.952,2.417,2.417,0,0,0,2.953,1.676,9.86,9.86,0,0,0,3.307-1.985,6.244,6.244,0,0,0,1.745-4.034,7.828,7.828,0,0,0-3.007-6.553,8.348,8.348,0,0,0-4.155-1.589,15.092,15.092,0,0,0-4.046.387q-4.164.685-8.316,1.441a2.423,2.423,0,0,0-1.677,2.953,2.453,2.453,0,0,0,2.953,1.676Z" />

        <path class="d"
            d="M59.977,234.36c.41-.065.82-.124,1.23-.183.281-.041-.157.018-.172.022a2.051,2.051,0,0,1,.282-.036c.254-.033.509-.064.764-.095.964-.118,1.928-.245,2.893-.348a17.728,17.728,0,0,1,2.831-.061c.3.016-.164-.018-.159-.023a1.079,1.079,0,0,1,.277.053c.208.045.409.105.612.168.421.13-.3-.2.058.037.067.043.142.094.214.131.222.115-.351-.374-.011.01.059.065.121.136.184.2.2.2-.121-.123-.1-.13a3.122,3.122,0,0,1,.272.466c.189.338-.056-.075-.027-.08a2.645,2.645,0,0,1,.089.254c.063.2.117.4.162.6.027.122.174.7.071.353s-.062.305.011-.126-.036.112-.07.23c-.021.075-.048.149-.072.224-.031.1-.2.349-.029.092.2-.3-.136.236-.178.306a1.316,1.316,0,0,0-.131.205c-.082.245.083-.2.143-.173-.009,0-.129.15-.147.162-.218.141.26-.142.231-.154s-.362.186-.411.209c-.355.167.536-.216.171-.072-.12.047-.239.1-.359.143q-.376.145-.759.272a29.278,29.278,0,0,1-5.081,1.053,2.407,2.407,0,0,0-1.676,2.952,2.477,2.477,0,0,0,2.952,1.677,28.794,28.794,0,0,0,5.194-1.091,18.03,18.03,0,0,0,2.132-.856,4.978,4.978,0,0,0,2.119-2.345,6.06,6.06,0,0,0,.633-3.663,7.552,7.552,0,0,0-1.046-2.983c-1.465-2.283-4-3-6.592-2.941-1.307.032-2.608.237-3.9.393s-2.587.319-3.874.523a2.408,2.408,0,0,0-1.676,2.953,2.471,2.471,0,0,0,2.952,1.676Z" />

        <path class="d"
            d="M79,197.978c4.687-7.059,11.814-12.119,19.075-16.26a184.982,184.982,0,0,1,23.962-11.287l6.858-2.693a2.473,2.473,0,0,0,1.676-2.952,2.418,2.418,0,0,0-2.953-1.677c-5.767,2.266-11.5,4.575-17.16,7.1-8.968,4-17.851,8.443-25.569,14.584a47.214,47.214,0,0,0-10.034,10.76c-1.714,2.581,2.442,4.988,4.145,2.423Z" />

        <path class="d"
            d="M45.912,253.817c1.448,13.151,2.6,26.463,5.152,39.458,1.624,8.284,4.475,16.539,9.989,23.062a28.254,28.254,0,0,0,9.489,7.425A30.6,30.6,0,0,0,81.909,326.4c8.6.451,17.917-2.219,23.585-9.021a2.466,2.466,0,0,0,0-3.394,2.42,2.42,0,0,0-3.394,0c-4.5,5.4-11.444,7.642-18.318,7.661a27.626,27.626,0,0,1-9.869-1.632,23.21,23.21,0,0,1-8.738-6.243c-5.227-5.753-7.756-13.42-9.306-20.9-1.278-6.165-2-12.1-2.755-18.249-.851-6.93-1.638-13.868-2.4-20.808a2.471,2.471,0,0,0-2.4-2.4,2.415,2.415,0,0,0-2.4,2.4Z" />

        <path class="d"
            d="M165.93,125.609c.357-.189.716-.369,1.082-.54.083-.039.467-.186.1-.044-.4.152.087-.03.131-.046.264-.094.528-.188.8-.27a16.181,16.181,0,0,1,2.217-.5c-.352.056.075-.009.215-.024q.327-.036.655-.06c.528-.039,1.058-.058,1.587-.061.494,0,.988.008,1.48.037.228.013.455.029.682.05,0,0,.8.1.369.035a14.034,14.034,0,0,1,2.19.492c.306.1.6.213.9.324-.565-.208.019.02.235.134.185.1.367.2.544.311.195.123.812.593.089.029a2.478,2.478,0,0,0,3.394,0,2.416,2.416,0,0,0,0-3.394,15.456,15.456,0,0,0-9.58-2.818,19.743,19.743,0,0,0-9.509,2.2,2.4,2.4,0,0,0,2.423,4.145Z" />

        <path class="e"
            d="M69.588,136.1q-2.715-1.77-5.427-3.546-6.774-4.434-13.543-8.879l10.163-15.552c.725-1.1,1.451-2.207,2.167-3.316a3.717,3.717,0,0,0-.021-4.276,2.881,2.881,0,0,0-1.017-1.064l-.879-.441a3.823,3.823,0,0,0-2.006-.145l-.977.33a3.835,3.835,0,0,0-1.477,1.294c-.716,1.11-1.442,2.213-2.167,3.317-3.423,5.205-6.875,10.391-10.294,15.6q-9.4-6.159-18.833-12.276a3.846,3.846,0,1,0-4.3,6.377l18.931,12.371c-1.321,2.053-2.645,4.1-3.954,6.164L28.64,143.246l-1.024,1.568a3.846,3.846,0,1,0,6.377,4.3q4.245-6.33,8.337-12.758l4.067-6.225,13.463,8.8q2.712,1.774,5.426,3.546a3.988,3.988,0,0,0,2.885.586,4.276,4.276,0,0,0,2.455-1.624,3.876,3.876,0,0,0,.587-2.885A3.97,3.97,0,0,0,69.588,136.1Z" />

    </g>

</svg>