
<!-- Uploaded to: SVG Repo, www.svgrepo.com, Transformed by: SVG Repo Mixer Tools -->
<svg version="1.1" id="Layer_1" xmlns="http://www.w3.org/2000/svg"
    xmlns:xlink="http://www.w3.org/1999/xlink" viewBox="0 0 488 488" xml:space="preserve"
    width="280px" height="280px">

<g id="SVGRepo_bgCarrier" stroke-width="0"/>

<g id="SVGRepo_tracerCarrier" stroke-linecap="round" stroke-linejoin="round"/>

<g id="SVGRepo_iconCarrier"> <path style="fill:#FCB23C;" d="M239.984,113.336c-79.304,0-143.816,64.512-143.816,143.824s64.512,143.824,143.816,143.824 c79.336,0,143.872-64.512,143.872-143.824S319.32,113.336,239.984,113.336z"/> <path style="fill:#FDC163;" d="M120.168,281.152c0-79.304,64.512-143.824,143.816-143.824c33.568,0,64.416,11.64,88.92,30.976 c-26.368-33.416-67.136-54.976-112.92-54.976c-79.304,0-143.816,64.512-143.816,143.824c0,45.76,21.552,86.504,54.96,112.864 C131.808,345.528,120.168,314.696,120.168,281.152z"/> <path style="fill:#FDD18A;" d="M239.992,160.624c-53.232,0-96.536,43.304-96.536,96.536s43.312,96.536,96.536,96.536 c53.232,0,96.536-43.312,96.536-96.536S293.224,160.624,239.992,160.624z"/> <path style="fill:#FCB23C;" d="M239.992,314.2c-31.44,0-57.008-25.592-57.008-57.048c0-4.416,3.584-8,8-8s8,3.584,8,8 c0,22.632,18.4,41.048,41.008,41.048c22.632,0,41.048-18.416,41.048-41.048c0-4.416,3.576-8,8-8s8,3.584,8,8 C297.04,288.616,271.448,314.2,239.992,314.2z"/> <path style="fill:#E6E6E6;" d="M72,216H24c-4.416,0-8,3.584-8,8v168c0,4.416,3.584,8,8,8h48c4.416,0,8-3.584,8-8V224 C80,219.584,76.416,216,72,216z"/> <g> <rect x="16" y="264" style="fill:#386aff;" width="64" height="40"/> <path style="fill:#386aff;" d="M16,408c0,13.232,10.768,24,24,24h16c13.232,0,24-10.768,24-24v-24H16V408z"/> </g> <path style="fill:#EBEBEB;" d="M88,64c-4.416,0-8,3.584-8,8v80H56V72c0-4.416-3.584-8-8-8s-8,3.584-8,8v80H16V72 c0-4.416-3.584-8-8-8s-8,3.584-8,8v88v48c0,13.232,10.768,24,24,24h48c13.232,0,24-10.768,24-24v-48V72C96,67.584,92.416,64,88,64z"/> <path style="fill:#E6E6E6;" d="M456,208h-48c-4.424,0-8,3.584-8,8v176c0,4.416,3.576,8,8,8h48c4.424,0,8-3.584,8-8V216 C464,211.584,460.424,208,456,208z"/> <g> <rect x="400" y="264" style="fill:#386aff;" width="64" height="40"/> <path style="fill:#386aff;" d="M400,408c0,13.232,10.768,24,24,24h16c13.232,0,24-10.768,24-24v-24h-64V408z"/> </g> <path style="fill:#EBEBEB;" d="M432,56c-31.4,0-56,38.656-56,88s24.6,88,56,88s56-38.656,56-88S463.4,56,432,56z"/> </g>

</svg>