<svg xmlns="http://www.w3.org/2000/svg" width="13" height="18" viewBox="0 0 13 18" fill="none">
                <g style="mix-blend-mode:multiply" opacity="0.8">
                    <path
                        d="M4.72686 8.19426C3.96936 7.76664 3.36805 7.08153 3.01866 6.248C2.66927 5.41448 2.59187 4.48048 2.79884 3.59474C3.00582 2.70899 3.48526 1.92243 4.16077 1.36029C4.83629 0.798156 5.66906 0.492752 6.52649 0.492752C7.38391 0.492752 8.21669 0.798156 8.89221 1.36029C9.56772 1.92243 10.0471 2.70899 10.2541 3.59474C10.4611 4.48048 10.3837 5.41448 10.0343 6.248C9.68492 7.08153 9.08362 7.76664 8.32611 8.19426C9.53946 8.60976 10.5985 9.42264 11.3521 10.5169C12.1057 11.6111 12.5154 12.9308 12.5227 14.2875V17.5072H0.5V14.2875C0.509337 12.9267 0.923423 11.6041 1.68281 10.5094C2.4422 9.41464 3.50787 8.60418 4.72686 8.19426Z"
                        fill="#909090" />
                </g>
</svg>