<?xml version="1.0" encoding="iso-8859-1"?>
<!-- Uploaded to: SVG Repo, www.svgrepo.com, Generator: SVG Repo Mixer Tools -->
<svg height="50px" width="50px" version="1.1" id="Layer_1" xmlns="http://www.w3.org/2000/svg"
	xmlns:xlink="http://www.w3.org/1999/xlink"
	viewBox="0 0 512 512" xml:space="preserve">
<path style="fill:#FFEB99;" d="M401.088,206.903c-1.542-44.003-37.69-79.204-82.072-79.204c-21.356,0-40.803,8.152-55.41,21.512
	c-17.336-37.358-55.173-63.271-99.066-63.271c-60.288,0-109.162,48.874-109.162,109.162c0,3.987,0.22,7.923,0.637,11.801H401.088z"
	/>
<path style="fill:#0084FF;" d="M256,452.454c-29.158,0-57.122-5.095-83.069-14.422v48.898h166.139v-48.898
	C313.124,447.359,285.158,452.454,256,452.454z"/>
<path style="fill:#10BAFC;" d="M501.551,206.903c0,135.614-109.936,245.551-245.551,245.551
	c-135.613,0-245.551-109.937-245.551-245.551H501.551z"/>
<path style="fill:#1EB615;" d="M381.625,106.785l73.802-73.802c10.552-10.551,27.661-10.551,38.211,0l0,0
	c10.551,10.551,10.552,27.661-0.001,38.209l-73.801,73.804L381.625,106.785z"/>
<polygon style="fill:#FFFFFF;" points="341.883,206.902 297.567,206.888 389.648,114.807 411.813,136.973 "/>
<path d="M501.551,196.454h-90.933c-1.66-11.372-5.444-22.408-11.122-32.387l12.316-12.316l0.634,0.634
	c1.959,1.959,4.617,3.061,7.388,3.061c2.771,0,5.429-1.101,7.388-3.061l73.799-73.802C508.103,71.506,512,62.097,512,52.088
	c0-10.008-3.897-19.417-10.975-26.493c-7.076-7.076-16.485-10.974-26.493-10.974c-10.008,0-19.417,3.897-26.495,10.974
	l-73.802,73.802c-1.959,1.959-3.06,4.617-3.06,7.388c0,2.771,1.101,5.429,3.06,7.388l0.634,0.634L361.9,127.776
	c-13.18-6.895-27.891-10.526-42.885-10.526c-18.729,0-36.807,5.622-52.077,16.029C245.452,97.8,206.55,75.491,164.54,75.491
	c-65.952,0-119.609,53.658-119.609,119.61c0,0.445,0.025,0.904,0.03,1.352H10.449C4.678,196.454,0,201.132,0,206.903
	c0,68.38,26.628,132.668,74.981,181.019c25.353,25.353,55.092,44.722,87.501,57.422v41.586c0,5.771,4.678,10.449,10.449,10.449
	h166.139c5.771,0,10.449-4.678,10.449-10.449v-41.586c32.409-12.701,62.148-32.069,87.502-57.422
	C485.372,339.57,512,275.283,512,206.903C512,201.132,507.322,196.454,501.551,196.454z M389.431,196.454h-22.323l16.888-16.888
	C386.496,184.94,388.325,190.624,389.431,196.454z M462.815,40.371c3.131-3.129,7.291-4.854,11.717-4.854
	c4.426,0,8.587,1.723,11.716,4.854c3.131,3.129,4.854,7.29,4.854,11.716s-1.723,8.586-4.855,11.715l-66.413,66.416l-0.633-0.633
	l-22.165-22.166c-0.003-0.003-0.007-0.006-0.01-0.009l-0.624-0.625L462.815,40.371z M397.036,136.973l-59.482,59.481h-14.776
	l66.868-66.869L397.036,136.973z M65.829,195.102c0-54.43,44.283-98.713,98.714-98.713c38.292,0,73.457,22.46,89.587,57.22
	c1.401,3.021,4.16,5.192,7.425,5.847c3.265,0.655,6.647-0.287,9.104-2.535c13.237-12.106,30.411-18.774,48.358-18.774
	c9.373,0,18.598,1.835,27.169,5.344l-52.963,52.963H65.859C65.853,196.006,65.829,195.546,65.829,195.102z M328.62,476.481H183.38
	v-23.988c23.28,6.849,47.676,10.409,72.62,10.409s49.34-3.56,72.62-10.408V476.481z M256,442.005
	c-126.138,0-229.394-99.841-234.873-224.653h469.746C485.394,342.164,382.138,442.005,256,442.005z"/>
<path d="M256.001,407.51h0.219c5.771,0,10.449-4.678,10.449-10.449c0-5.771-4.678-10.449-10.449-10.449h-0.219
	c-5.771,0-10.449,4.678-10.449,10.449C245.552,402.832,250.23,407.51,256.001,407.51z"/>
<path d="M289.615,404.547c0.609,0,1.227-0.053,1.848-0.164c54.265-9.683,102.695-41.875,132.872-88.323
	c3.144-4.839,1.77-11.311-3.07-14.455c-4.838-3.143-11.31-1.769-14.455,3.07c-27.041,41.619-70.422,70.464-119.019,79.135
	c-5.681,1.014-9.465,6.442-8.45,12.123C280.244,400.993,284.649,404.547,289.615,404.547z"/>
</svg>