<svg xmlns="http://www.w3.org/2000/svg" width="13" height="13" viewBox="0 0 13 13"
                    fill="none">
                    <g clip-path="url(#clip0_31_94)">
                        <path
                            d="M10.9064 1.14884C11.157 1.14884 11.3973 1.24836 11.5745 1.42554C11.7516 1.60272 11.8512 1.84304 11.8512 2.09361V10.9064C11.8512 11.1569 11.7516 11.3973 11.5745 11.5745C11.3973 11.7516 11.157 11.8511 10.9064 11.8511H2.09362C1.84235 11.8512 1.60125 11.7519 1.42287 11.5749C1.24449 11.398 1.14328 11.1576 1.14129 10.9064V2.09361C1.14328 1.84235 1.24449 1.60204 1.42287 1.42508C1.60125 1.24811 1.84235 1.14884 2.09362 1.14884H10.9064ZM10.9064 -7.62939e-06H2.09362C1.53836 -7.62939e-06 1.0058 0.220588 0.613176 0.613215C0.220549 1.00584 0 1.53835 0 2.09361V10.9064C0 11.4616 0.220549 11.9942 0.613176 12.3868C1.0058 12.7794 1.53836 13 2.09362 13H10.9064C11.4616 13 11.9942 12.7794 12.3868 12.3868C12.7794 11.9942 13 11.4616 13 10.9064V2.09361C13 1.53835 12.7794 1.00584 12.3868 0.613215C11.9942 0.220588 11.4616 -7.62939e-06 10.9064 -7.62939e-06Z"
                            fill="#000" />
                        <path
                            d="M5.69126 8.6843C5.6166 8.68598 5.54241 8.67206 5.47343 8.64342C5.40445 8.61479 5.34223 8.5721 5.29071 8.51804L3.66569 6.90059C3.55945 6.79334 3.50015 6.64831 3.50086 6.49735C3.50157 6.3464 3.56223 6.20188 3.66947 6.09564C3.77671 5.9894 3.92179 5.93011 4.07275 5.93082C4.22371 5.93153 4.36817 5.99218 4.47441 6.09943L5.69126 7.30871L8.51805 4.48954C8.62429 4.3823 8.76875 4.32164 8.91971 4.32093C9.07067 4.32022 9.21575 4.37952 9.32299 4.48576C9.43023 4.592 9.49084 4.73651 9.49155 4.88747C9.49226 5.03842 9.43297 5.18346 9.32673 5.2907L6.09187 8.51804C6.04034 8.5721 5.97812 8.61479 5.90914 8.64342C5.84016 8.67206 5.76593 8.68598 5.69126 8.6843Z"
                            fill="#000" />
                    </g>
                    <defs>
                        <clipPath id="clip0_31_94">
                            <rect width="13" height="13" fill="white" />
                        </clipPath>
                    </defs>
</svg>