
<!-- Uploaded to: SVG Repo, www.svgrepo.com, Transformed by: SVG Repo Mixer Tools -->
<svg height="64px" width="64px" version="1.1" id="Layer_1" xmlns="http://www.w3.org/2000/svg"
    xmlns:xlink="http://www.w3.org/1999/xlink" viewBox="0 0 512 512" xml:space="preserve"
    fill="#000000">

<g id="SVGRepo_bgCarrier" stroke-width="0"/>

<g id="SVGRepo_tracerCarrier" stroke-linecap="round" stroke-linejoin="round"/>

<g id="SVGRepo_iconCarrier"> <circle style="fill:#FFD15D;" cx="256" cy="256" r="256"/> <path style="fill:#F9B54C;" d="M504.601,317.269L309.036,120.961l-99.294,15.515l6.034,180.739l-54.61,61.661l130.555,130.631 C395.855,494.966,479.91,417.794,504.601,317.269z"/> <path style="fill:#324A5E;" d="M330.99,245.972h-36.411v-71.739c0-21.511-17.306-39.012-38.579-39.012s-38.579,17.501-38.579,39.012 v71.739H181.01v-71.739c0-41.589,33.64-75.423,74.99-75.423s74.99,33.833,74.99,75.423V245.972z"/> <path style="fill:#2B3B4E;" d="M256,98.809c-0.193,0-0.381,0.014-0.574,0.014v36.412c0.191-0.003,0.381-0.016,0.574-0.016 c21.273,0,38.579,17.501,38.579,39.012v71.739h36.411v-71.739C330.99,132.644,297.35,98.809,256,98.809z"/> <path style="fill:#FC6F58;" d="M304.412,398.222h-96.825c-36.1,0-65.365-29.265-65.365-65.365V227.556h227.556v105.301 C369.778,368.957,340.513,398.222,304.412,398.222z"/> <path style="fill:#F1543F;" d="M255.426,227.556v170.667h48.986c36.1,0,65.365-29.265,65.365-65.365V227.556H255.426z"/> <path style="fill:#324A5E;" d="M274.101,294.357c0-9.997-8.104-18.101-18.101-18.101c-9.997,0-18.101,8.104-18.101,18.101 c0,6.516,3.455,12.21,8.62,15.398v23.983c0,4.91,3.979,8.888,8.888,8.888h1.186c4.91,0,8.888-3.979,8.888-8.888v-23.983 C270.646,306.567,274.101,300.873,274.101,294.357z"/> <path style="fill:#2B3B4E;" d="M256,276.256c-0.193,0-0.381,0.022-0.574,0.029v66.341h1.167c4.91,0,8.888-3.979,8.888-8.888v-23.983 c5.165-3.188,8.62-8.882,8.62-15.398C274.101,284.36,265.997,276.256,256,276.256z"/> </g>

</svg>