 <svg xmlns="http://www.w3.org/2000/svg" width="12" height="17" viewBox="0 0 12 17" fill="none">
                <path
                    d="M0 7.34507V14.7717C0 15.1201 0.137483 15.4541 0.382181 15.7005C0.626879 15.9468 0.958749 16.0852 1.3048 16.0852H10.7091C10.8795 16.0843 11.0481 16.0496 11.2052 15.9831C11.3623 15.9165 11.5049 15.8195 11.6248 15.6976C11.7447 15.5756 11.8395 15.4311 11.9039 15.2722C11.9682 15.1133 12.0009 14.9433 12 14.7717V7.34507C12 7.00043 11.864 6.6699 11.6219 6.4262C11.3798 6.1825 11.0514 6.04557 10.7091 6.04557H9.79988V4.8998C9.82178 4.38466 9.73989 3.87037 9.55914 3.38792C9.3784 2.90547 9.10255 2.46484 8.74818 2.09254C8.39382 1.72023 7.96828 1.42397 7.49718 1.22157C7.02608 1.01917 6.51918 0.914825 6.00696 0.914825C5.49475 0.914825 4.9878 1.01917 4.5167 1.22157C4.0456 1.42397 3.62006 1.72023 3.2657 2.09254C2.91133 2.46484 2.63548 2.90547 2.45474 3.38792C2.27399 3.87037 2.1921 4.38466 2.214 4.8998V6.04557H1.3048C1.13437 6.04465 0.965426 6.07754 0.807613 6.14235C0.649799 6.20716 0.506182 6.30263 0.385019 6.4233C0.263857 6.54397 0.167519 6.68747 0.101455 6.84563C0.0353899 7.00378 0.000908997 7.1735 0 7.34507ZM8.08562 6.04557H3.92136V4.8998C3.92136 4.34392 4.14071 3.8108 4.53119 3.41773C4.92166 3.02466 5.45127 2.80385 6.00349 2.80385C6.5557 2.80385 7.08527 3.02466 7.47574 3.41773C7.86622 3.8108 8.08562 4.34392 8.08562 4.8998V6.04557ZM4.24059 11.0898C4.23885 10.785 4.32007 10.4855 4.4754 10.2238C4.63072 9.96211 4.85425 9.74823 5.12174 9.60532C5.38924 9.46241 5.6905 9.39595 5.99285 9.41313C6.29521 9.43032 6.58712 9.53049 6.83694 9.7028C7.08676 9.87511 7.28492 10.1129 7.41 10.3906C7.53508 10.6682 7.58226 10.975 7.54644 11.2777C7.51063 11.5804 7.39319 11.8675 7.20684 12.1078C7.02048 12.3481 6.77232 12.5324 6.48928 12.6408V14.5412C6.49023 14.5592 6.48752 14.5772 6.48132 14.5941C6.47512 14.611 6.46557 14.6265 6.45323 14.6396C6.44089 14.6526 6.42603 14.663 6.40956 14.6701C6.39309 14.6772 6.37533 14.6809 6.35741 14.6809H5.45517C5.43602 14.6818 5.41691 14.679 5.39887 14.6724C5.38083 14.6659 5.36421 14.6559 5.35003 14.6429C5.33584 14.6299 5.32434 14.6143 5.31618 14.5968C5.30802 14.5793 5.30339 14.5604 5.3025 14.5412V12.6408C4.99435 12.5174 4.73021 12.3034 4.54453 12.0268C4.35885 11.7502 4.26023 11.4237 4.26143 11.0898H4.24059Z"
                    fill="#909090" />
</svg>